<svg width="1440" height="1346" viewBox="0 0 1440 1346" fill="none" xmlns="http://www.w3.org/2000/svg">
<path fill-rule="evenodd" clip-rule="evenodd" d="M1440 22.2997C1440 22.2997 1304.78 -27.8746 1135.92 22.2997C1009.96 65.6081 888.814 23.0905 761.485 5.39882C634.156 -12.2929 462.215 56.6648 451.571 71.5564C451.514 98.1941 451.571 394.262 451.571 394.262H1440V22.2997Z" fill="#F9F1F1"/>
<path fill-rule="evenodd" clip-rule="evenodd" d="M1 22.2997C1 22.2997 136.222 -27.8746 305.079 22.2997C431.035 65.6081 552.186 23.0905 679.515 5.39882C806.844 -12.2929 978.784 56.6648 989.429 71.5564C989.486 98.1941 989.429 394.262 989.429 394.262H1V22.2997Z" fill="#F9F1F1"/>
<path d="M1440 321.108H0V1350.5H1440L1440 321.108Z" fill="#F9F1F1"/>
</svg>
