<svg width="390" height="1697" viewBox="0 0 390 1697" fill="none" xmlns="http://www.w3.org/2000/svg">
<path fill-rule="evenodd" clip-rule="evenodd" d="M390 22.308C390 22.308 353.189 -27.8849 307.223 22.308C272.935 65.6324 239.955 23.0991 205.293 5.4008C170.631 -12.2975 123.825 56.6858 120.928 71.5829C120.912 98.2304 120.928 394.408 120.928 394.408H390V22.308Z" fill="#F9F1F1"/>
<path fill-rule="evenodd" clip-rule="evenodd" d="M-1.72778 22.308C-1.72778 22.308 35.0828 -27.8849 81.0493 22.308C115.337 65.6324 148.317 23.0991 182.979 5.4008C217.641 -12.2975 264.447 56.6858 267.344 71.5829C267.36 98.2304 267.344 394.408 267.344 394.408H-1.72778V22.308Z" fill="#F9F1F1"/>
<path d="M390 321.227H-2V1703H390V321.227Z" fill="#F9F1F1"/>
</svg>
