<svg width="558" height="508" viewBox="0 0 558 508" fill="none" xmlns="http://www.w3.org/2000/svg">
<g clip-path="url(#clip0_581_2232)">
<path d="M196.175 127.473L189.321 126.742L186.057 127.012L185.22 128.278L186.69 130.315L187.756 131.229L189.803 131.847L191.133 133L190.227 136.099L188.84 138.988L188.498 140.294L187.509 141.247L181.674 144.111L180.084 145.651L179.732 147.044L179.966 148.141L180.699 149.786L181.319 150.817L182.567 151.113L185.472 151.296L188.298 152.131L189.954 153.637L190.687 154.072L190.977 153.541V152.945L189.863 151.396L190.236 150.43L191.857 150.451L192.971 151.779V153.75L193.179 154.934L194.003 154.773L194.801 153.128L196.127 153.002L196.886 151.239L198.746 150.086L200.254 148.219L201.069 146.043L203.627 145.899L203.982 144.159L204.095 141.848L205.829 139.828L208.157 138.958L210.476 139.249L212.106 138.235V136.216L212.201 134.706L210.329 132.491L205.608 131.433L204.394 130.902L203.302 129.888L202.799 129.162L200.961 128.426L196.175 127.473Z" fill="#22B2B5" fill-opacity="0.15" stroke="white" stroke-width="1.5"/>
<path d="M398.924 290.924L367.99 277.551L364.314 276.889L363.685 277.851L362.385 279.291L356.39 282.695L354.357 284.871L339.045 292.996L337.745 295.746L337.376 306.408L336.943 308.759L332.057 310.935L326.617 311.683L324.259 311.196L320.566 311.052L304.366 313.937L301.83 316.784L300.499 319.329L299.857 321.771L299.935 323.433L301.544 326.48L303.252 330.984L303.932 334.331L304.86 335.471L305.792 336.115L305.432 347.012L305.736 348.914L306.134 350.22L306.16 351.164L305.254 351.821L302.346 352.178L302.06 352.422L300.785 352.987V353.645L301.565 356.282L303.911 361.169L304.24 362.444L304.864 363.563L305.549 364.259L306.85 365.095L313.452 365.7L315.125 366.422L320.947 380.957L323.401 381.14L328.603 382.629L331.204 384.657L332.461 386.315L333.726 387.185L335.027 387.829L336.505 387.442L342.271 383.046L345.665 381.449L346.532 381.34L347.347 382.55L347.897 395.114L347.152 397.582L347.754 400.798L350.329 404.14L352.8 406.429L355.761 408.231L359.194 408.758L361.041 408.427L364.435 406.743L367.548 403.762L368.415 402.678L369.715 401.625L371.285 401.686L374.293 403.17L374.523 403.692L374.267 407.056L375.316 412.152L375.75 412.849L376.317 413.327L377.184 413.449L378.684 414.267L379.833 415.769L380.509 417.074L381.81 418.515L383.11 420.508L383.297 422.153L382.503 422.823L381.996 423.829L382.651 424.782L383.422 425.178L384.203 426.779L385.07 429.338L385.976 441.524L386.557 443.412L395.461 448.16L397.416 449.61L398.283 449.875L399.635 448.596L400.333 447.629L401.508 446.824L403.411 446.872L405.396 448.069L407.564 449.888L409.259 451.86L410.087 453.657L409.844 454.279L408.032 453.165L407.412 453.139L407.382 453.783L408.08 455.859L408.114 456.686L407.954 457.221L407.434 457.874L407.026 458.875L406.359 465.181L406.528 466.117V467.048L406.185 468.85L405.6 469.576L405.648 470.238L409.471 469.964L411.834 470.399L413.394 470.251L414.391 469.777L415.406 470.016L416.507 470.516L418.31 470.795L418.848 471.147L418.809 471.496L418.536 472.083L418.605 472.714L418.895 473.428L418.982 474.433L419.468 475.304L420.651 475.578L422.086 475.626L423.321 475.473L424.188 474.572L425.029 474.359L426.152 474.794H426.932L427.366 475.143L428.545 476.927L429.113 475.521L429.291 474.324V472.331L429.646 471.496L430.036 470.978L429.98 469.929L430.522 469.263L430.99 468.018L430.738 466.782L429.741 465.59L429.208 463.71L429.924 462.222L430.843 461.116V460.011L429.919 459.166L429.451 458.427L430.257 457.025L431.072 454.566L429.516 451.459L427.323 448.922L426.729 446.711L426.82 444.618L426.711 443.404L426.018 440.675V437.45L429.343 424.368L429.724 420.63L429.529 409.28L432.85 404.928L433.743 401.956L432.72 400.285L430.353 398.483L429.278 396.816L430.951 395.924L434.224 394.805L440.93 390.889L442.23 389.853L443.071 388.93L443.119 387.716L442.82 386.41L441.979 384.635L441.936 381.924L441.502 379.748L441.936 377.615L444.355 373.903L445.222 370.622L445.304 367.728L444.307 360.708L443.158 357.783L441.858 356.913L441.173 356.186L441.433 353.414L447.346 325.796L435.841 308.95L431.701 305.851L398.924 290.924Z" fill="#22B2B5" fill-opacity="0.15" stroke="white" stroke-width="1.5"/>
<path d="M502.022 507.4L502.698 506.499L502.265 506.203L503.839 505.728L504.246 505.506L504.476 505.289L504.515 505.163V504.988L504.645 504.653L505.078 504.066L505.239 503.757L505 503.478L504.714 503.317L504.042 503.1L504.658 502.621H505.139L505.607 502.813L506.218 502.882L506.058 502.734L505.776 502.399L505.616 502.242L505.707 502.047L505.746 501.533L505.828 501.35L506.11 501.167L506.249 501.268L506.34 501.463L506.838 501.825L506.895 502.364L507.085 502.83L507.996 500.167L508.169 497.464L508.373 494.278L508.546 491.528L508.663 489.661L508.763 489.2L508.936 488.895L509.37 488.46L509.561 488.207L509.643 487.102L509.322 485.827L509.175 484.647L509.782 483.777L510.397 483.633H510.952L511.455 483.516L511.889 482.976L512.049 482.411L512.357 480.165L512.717 477.488L512.99 475.487L513.219 473.746L513.484 471.787L513.727 470.786L514.16 469.916L514.862 469.372L518.33 468.38L519.362 467.688L519.895 467.418L520.489 467.231L521.686 467.035L521.946 466.7L522.05 465.904L522.535 465.12L523.623 465.268L524.924 465.703L526.003 465.856L526.627 465.521L526.601 465.085L526.32 464.489L526.159 463.749L526.372 463.349L527.278 462.448L527.577 461.891L527.546 461.687L527.438 461.504L527.347 461.295L527.403 461.008L527.581 460.764L527.833 460.612L528.396 460.377L528.635 460.246L529.003 459.972L529.241 459.867L529.51 459.841L530.126 459.867L530.416 459.785L530.585 459.632L530.819 459.197L531.049 459.023L531.322 458.94L536.151 458.427L536.737 458.218L536.979 458.031L537.2 457.792L537.452 457.639L537.76 457.7L538.085 457.857H538.332L539.199 457.657L539.442 457.557L539.658 457.448L539.853 457.291L540.152 456.738L540.369 456.447L540.681 456.355L542.649 456.403L544.904 456.46L547.505 456.525L548.623 456.699L549.759 456.734L550.626 456.543L550.895 456.564L551.146 456.686L551.354 456.83L551.579 456.952H551.87L552.52 456.316L552.824 455.011L553.049 450.306L553.266 449.797L553.738 449.545L554.909 449.353L555.342 448.957L555.433 448.361L555.199 447.839L554.835 447.312L554.579 446.707L554.432 443.043L554.475 442.655L554.592 442.329L554.9 441.894L555.008 441.567L555.325 441.049L555.888 440.797H556.53L557.024 440.993L556.04 438.817L555.633 438.203L555.325 437.868L555.06 437.699L554.363 437.533L554.033 437.324L553.292 436.637L552.928 436.506H552.637L551.059 437.011H550.691L550.21 436.963L549.447 436.998L547.934 437.463L547.18 437.585L545.502 437.92L544.722 437.96L543.811 437.764L543.135 437.39L542.905 437.311L542.701 437.346L542.307 437.577H542.077L541.644 437.337L540.395 436.219L540.859 436.188L541.137 435.975L541.31 435.61L541.449 435.14L541.496 434.617L541.358 434.26L540.794 433.577L542.307 430.144L542.48 428.786L542.329 427.084L542.047 424.073L541.908 422.436L541.665 419.795L541.492 417.849L540.738 414.703L540.205 412.435L540.668 408.701L541.102 405.333L540.959 404.184L540.322 403.792L535.605 404.759L535.02 404.389L533.199 402.404L532.766 401.69L532.579 401.125L532.376 400.785L532.076 400.589L531.595 400.437L531.131 400.172L530.837 399.776L530.585 399.34L530.251 398.944L529.45 398.509L525.648 397.734L523.246 396.66L522.327 396.455L520.411 396.294L519.544 396.015L518.166 395.219L516.432 394.727L515.894 394.44L514.984 393.378L513.159 391.672L511.958 390.105L508.984 387.394L508.148 386.358L507.32 384.539L506.492 383.604L506.34 383.112L506.275 382.555L506.11 381.911L504.888 379.091L504.632 378.751L504.311 378.499L503.943 378.325L503.722 378.146L503.648 377.959L503.735 377.755L503.943 377.541L504.207 377.254L504.307 376.954L504.22 376.667L503.943 376.44L503.448 376.231L503.223 375.748L503.071 375.183L502.781 374.717L502.464 374.547L502.2 374.512L501.936 374.421L501.632 374.073L501.485 373.694L501.407 372.867L501.316 372.493L500.947 371.923L500.028 370.905L499.755 370.234V369.582L500.097 368.415L500.154 367.771L499.889 366.927L499.382 366.561L498.775 366.322L498.212 365.856L495.836 363.01L493.586 360.295L491.419 357.683L489.533 355.407L488.007 353.597L485.679 350.82L487.353 348.862L489.52 346.281L493.994 340.92L496.374 338.06L498.008 336.132L501.129 332.377L503.47 329.544L506.769 325.535L510.415 321.105L512.795 318.211L513.284 317.685L513.215 317.502L513.18 317.467L513.219 316.858L513.289 316.623L513.462 316.523L513.354 314.225L513.228 313.824L513.779 312.732L513.987 312.023V311.357L513.848 310.687L513.501 309.581L512.994 308.511L512.92 308.154L512.873 307.17L512.63 306.404L511.858 305.12L511.576 304.428V303.754L511.78 302.3L511.576 301.674L510.545 300.368L509.981 299.933L509.244 299.641L507.658 299.411L504.333 298.919L498.697 298.088L493.807 297.365L494.332 299.341L493.933 303.414L492.043 307.845L490.678 312.797L490.079 321.606L490.196 324.173L491.657 330.701L491.61 331.75L491.176 332.442L490.201 332.834L486.299 332.973L483.937 330.932L479.368 324.421L475.813 321.771L473.147 321.04L472.484 320.509L471.465 319.43L469.9 319.142L448.273 325.309L447.367 325.744L441.454 353.362L441.194 356.134L441.879 356.861L443.18 357.731L444.328 360.656L445.325 367.675L445.243 370.57L444.376 373.851L441.957 377.563L441.524 379.696L441.957 381.872L442 384.583L442.841 386.358L443.141 387.664L443.093 388.878L442.252 389.801L440.951 390.837L434.245 394.753L430.972 395.872L429.299 396.764L430.374 398.431L432.741 400.233L433.764 401.904L432.871 404.876L429.55 409.228L429.745 420.578L429.364 424.316L426.039 437.398V440.623L426.733 443.352L426.841 444.566L426.75 446.659L427.344 448.87L429.516 451.459L431.033 454.558L430.218 457.017L429.412 458.418L429.88 459.158L430.803 460.002V461.108L429.884 462.213L429.169 463.701L429.702 465.581L430.699 466.774L430.951 468.01L430.482 469.255L429.941 469.92L429.997 470.969L429.607 471.487L429.251 472.323V474.316L429.074 475.513L428.506 476.918L428.163 477.106L427.639 477.906L427.5 478.933L427.613 479.521L428.011 479.686L429.035 480.339L434.497 485.196L435.429 486.728L435.58 487.89L436.213 488.538L437.08 488.878L437.553 489.461L437.743 490.122L438.138 490.631L438.619 491.106L439.638 492.847L439.872 493.169L440.409 493.434L440.336 493.952V494.435L439.577 494.761L439.703 495.523L440.513 495.397L443.916 494.844L445.546 494.531L446.6 495.118L447.97 496.515L450.163 497.029H451.464L454.793 496.82L456.093 497.159L457.298 498.321L458.512 498.757L459.579 497.956L461.126 497.89L462.596 497.669L463.654 497.603L464.087 497.851L464.408 498.286L464.633 498.456L465.622 498.6L465.934 498.704L466.51 499.096H467.299L467.494 498.495L466.887 498.06L466.818 497.908V497.716L467.078 497.425L467.243 497.36L468.045 497.198L469.09 497.151L469.61 497.229L470.043 497.425L469.917 497.551L469.644 498.06L470.481 498.743H471.734L472.315 499.07L473.489 499.562L474.417 499.953L474.751 500.027L474.829 499.623L473.997 499.187V499.118L474.317 499.161L474.014 498.835L473.893 498.63L473.776 498.552H473.524L473.203 498.4H473.008L472.87 498.308L472.757 497.66L472.67 497.455V497.246L472.9 496.898L473.333 496.346L473.602 495.91L474.096 495.636L476.078 495.023L476.593 494.975L477.101 495.036L477.534 495.301L478.583 496.346L478.674 496.633V498.43L478.765 498.865L479.459 499.879L479.025 500.288L479.502 500.55L482.22 500.889L486.226 501.842L490.946 502.634L494.974 504.088L495.407 504.875V505.402L497.093 505.763L502.022 507.4Z" fill="#22B2B5" fill-opacity="0.25" stroke="white" stroke-width="1.5"/>
<path d="M389.166 69.2744L385.013 67.6207L384.289 66.6415L384.852 64.7049L384.931 64.0869L384.783 63.4428L384.172 62.5724L383.838 61.467L382.889 60.4399L382.555 59.9308L382.035 58.6556L381.363 57.5154L381.246 57.1934V56.9236L381.168 56.6842L380.847 56.4753L380.227 56.2577L379.915 56.2229L379.603 56.2577L379.1 56.5101L378.849 56.7843L378.758 56.88L378.181 57.8941L377.838 58.264L376.906 58.895L376.503 59.2519L375.979 59.5434L375.394 59.452L374.254 58.9777L369.919 58.1595L369.485 58.0115L368.497 57.4414L367.365 56.5188L367.088 56.4623L365.709 56.6973L363.399 57.72L362.935 57.8027L362.549 57.6199L362.185 57.3326L361.782 57.0846L361.288 56.9627L358.648 57.0498L357.603 57.4545L356.628 58.1378L354.807 59.8394L354.629 60.3399L355.414 61.2451L355.548 61.8891L355.448 62.5637L355.158 63.1469L354.725 63.4863L352.262 63.8997L351.785 63.8388L350.897 63.4689L351.092 66.0409L350.901 67.081L350.979 68.4127L351.322 69.9577L351.291 70.8281L350.706 73.1912L350.771 74.8536L351.751 76.0243L353.112 76.7032L354.287 77.6128L354.824 79.841L353.233 82.0561L349.856 83.2312L349.089 83.353L348.222 83.749L347.355 84.5629L345.261 85.4332L343.15 89.189L342.283 90.0594L346.644 95.8997L348.69 97.3533L349.826 97.1531L351.231 97.7449L350.927 98.5762L349.249 99.081L348.452 99.6511L348.27 100.182L348.456 100.469L348.647 100.861L348.786 101.818L348.638 104.273L348.096 106.449L347.992 107.176L348.534 108.316L351.946 112.176L355.214 115.009L356.844 115.549L359.588 116.023L361.023 116.576L365.41 115.827L365.501 114.848L365.28 113.569L365.51 111.924L367.175 109.695L374.11 104.038L378.714 104.264L397.788 114.918L405.773 116.149L407.94 115.605L409.02 114.583L409.982 111.767L409.744 110.635L408.716 110.017L408.339 109.443L408.526 108.438L410.234 106.592L410.13 105.753L409.176 105.283L408.595 104.412L408.352 103.485L407.975 103.651L407.542 104.747L406.77 104.869L406.254 103.846L405.452 102.976L404.043 101.988L403.939 100.691L405.11 99.2333L406.844 94.098L407.884 92.6357L408.17 91.5521L408.196 90.834L408.461 90.203L409.219 89.2586L409.852 88.0923L409.679 86.6257L408.885 84.9937L406.285 82.5348L405.617 81.016L405.257 79.7713L404.711 79.0881L391.784 78.4701L390.683 77.6737L391.16 76.4073L391.481 75.0495V73.4567L392.564 72.3382L396.063 70.1622H395.924L395.551 69.9229L395.191 69.6095L394.801 69.3702H394.368L393.934 69.479L392.525 69.5094L391.056 69.0742L390.575 69.009L390.089 69.0873L389.656 69.2266L389.166 69.2744Z" fill="#22B2B5" fill-opacity="0.15" stroke="white" stroke-width="1.5"/>
<path d="M397.923 71.2851L397.489 71.1023L397.316 70.8717L397.056 70.319L396.857 70.1144L396.614 70.0579L396.146 70.1667H396.042L392.543 72.3426L391.46 73.4611V75.0539L391.139 76.4117L390.662 77.6782L391.763 78.4746L404.69 79.0925L405.236 79.7758L405.596 81.0205L406.263 82.5393L408.864 84.9982L409.658 86.6301L409.831 88.0967L409.198 89.2631L408.44 90.2075L408.175 90.8385L408.149 91.5566L407.863 92.6402L406.823 94.1024L405.089 99.2378L403.94 100.691L404.079 101.958L405.487 102.946L406.289 103.816L406.805 104.839L407.577 104.717L408.01 103.62L408.388 103.455L408.63 104.382L409.211 105.252L410.165 105.722L410.269 106.562L408.561 108.407L408.375 109.413L408.752 109.987L409.779 110.605L410.018 111.737L409.055 114.552L407.976 115.575L405.808 116.119L397.823 114.887L378.749 104.234L374.146 104.008L367.21 109.665L365.545 111.893L365.315 113.538L365.536 114.818L365.445 115.797L366.009 115.636L366.928 115.671L368.098 116.376L368.809 119.209L368.029 122.573L366.867 124.81L366.434 128.727L366.976 135.455L367.908 139.785L368.697 141.783L375.529 147.405L377.419 149.581L376.985 152.071L371.922 160.748L370.695 163.608L369.828 164.3L363.759 166.606L360.486 168.565L356.767 171.985L352.133 177.747L363.881 174.675L375.329 169.2L382.586 167.324L385.789 168.173L394.208 174.675L395.196 176.899L394.806 179.157L392.014 181.912L380.592 190.041L378.628 193.601L375 204.594L374.761 210.496L376.56 220.536L377.908 222.686L383.635 223.369L391.004 221.628L392.24 223.208L393.38 225.423L395.547 240.054L397.429 244.358L399.874 245.773L400.563 246.317L402.427 247.157L404.881 248.697L407.208 252.375L407.967 252.914L408.691 252.044L409.922 249.92L410.876 245.838L414.877 239.745L423.937 233.705L425.238 232.399L426.672 230.084L426.846 229.092L427.713 227.494L423.295 224.287L423.053 223.286L422.754 222.468L422.077 221.976L421.267 221.18L421.137 219.704L421.57 217.729L422.307 215.936L422.42 214.56L422.112 213.02L422.719 210.448L422.988 208.141L421.861 206.313L421.7 205.4L422.134 204.399L423.681 203.807L428.272 204.386L431.224 205.295L432.009 204.721L432.832 203.807L441.394 202.523L444.069 200.978L447.068 199.855L448.625 201.191L451.451 205.83L455.227 207.184L473.161 207.127L475.41 206.749L475.363 206.279L475.532 204.712L476.347 203.071L477.248 201.883L478.258 200.826L479.633 200.09L480.066 199.594L479.871 198.845L481.904 198.728L484.835 198.545L486.98 198.419L486.655 197.762L484.518 194.968L484.063 194.05L483.777 193.645L483.43 193.332L482.728 193.001L482.468 192.757L482.225 191.917L482.039 191.678L481.791 191.539L481.488 191.491L481.921 190.755L482.641 190.381L484.219 190.168L484.939 189.967L485.502 189.576L486.803 188.07L486.95 187.791L487.136 187.561L487.518 187.339L487.925 187.269L488.298 187.304L488.636 187.217L488.94 186.821L489.052 185.951L488.961 185.041L488.996 184.21L489.512 183.601L490.422 182.882L490.99 181.868L491.151 181.285L492.018 180.985L492.247 179.827L492.373 178.583V178.274L492.247 177.617L492.217 177.251L492.308 176.816L492.711 176.15L492.802 175.815L492.902 175.123L493.335 173.817L493.509 172.355L493.721 171.842L494.415 170.858L494.111 170.536L494.068 170.249L494.146 169.935L494.202 169.531L494.124 169.383L493.101 167.986L492.945 167.633L493.119 167.472L493.413 167.32V166.985L493.27 166.641L493.11 166.489V166.145V165.388L493.288 164.635L493.695 164.287H494.311L495 164.169L495.555 163.856L495.785 163.225L495.646 161.401L495.785 160.674L495.954 160.283L496.552 159.456L496.712 159.095L496.964 157.981L497.285 157.297L497.961 156.47L498.342 155.8L498.524 155.056L498.446 154.338L498.147 152.884L497.93 152.554L497.237 151.457L496.847 150.652L496.769 149.703L496.881 149.486L497.276 149.098L497.363 148.85V148.219V148.015L497.549 147.17V146.822L497.371 146.557L497.549 145.756V145.177L497.445 144.637L497.311 143.367L497.133 142.731L496.873 142.131L496.574 141.639L496.114 141.064L495.611 140.599L495.03 140.281L494.324 140.172L493.929 139.998L494.263 139.563L494.848 139.084L495.195 138.706V138.371L495.091 137.648L495.173 137.213L495.36 137.043L495.624 136.93L495.876 136.756L495.98 136.364V136.042L496.027 135.685L496.118 135.372L496.266 135.12L496.565 134.724L496.617 134.506L496.578 134.315L496.5 133.24L496.066 131.007L495.633 130.311L495.538 129.958V129.127L495.49 128.757L495.373 128.379L495.256 128.161L495.074 127.948L494.848 127.765L494.571 127.647L494.649 127.395L494.688 127.295L494.788 127.151L494.376 126.12L494.536 124.357L495.156 121.463L494.991 120.928L494.939 120.493L495.065 120.11L495.238 119.836L495.399 119.492L495.512 119.087L495.555 118.652L495.503 118.195L495.399 117.86L495.156 117.307L494.926 116.084L493.756 115.923L492.321 115.666L489.369 115.719L485.949 115.784L479.797 115.897L475.766 115.967L471.188 116.049L470.265 115.488L469.675 114.439L468.83 112.224L468.223 111.236L465.189 107.489L463.858 105.439L462.77 103.124L461.903 101.971L460.815 101.496L458.448 101.061L457.39 100.435L455.5 98.8243L451.351 97.4622L451.044 97.4404L450.77 97.5884L450.437 98.128L450.237 98.3413L449.955 98.3978L449.574 98.0932L449.37 97.4883L449.232 96.805L449.032 96.2393L448.551 95.7127L448.117 95.643L447.207 96.0086H446.969L446.726 95.8868L446.496 95.6953L446.305 95.4994L445.833 95.3732L445.751 95.1165L445.833 94.8162L445.868 94.5681L445.911 94.4724L446.015 94.3549L446.05 94.1721L445.881 93.9284L445.339 93.3191L443.535 91.809L443.193 91.3129L442.629 88.8018L442.56 88.0402L442.66 87.6354L442.837 87.2786L442.959 86.9478L442.872 86.6476L442.699 86.2472L442.79 85.4377L442.66 84.9546L442.088 84.1539L441.511 83.6012L440.848 83.4271L439.226 84.1669L438.611 84.1103L434.766 81.3207L433.825 80.3415L433.504 80.1588L432.672 80.0326L432.282 79.9107L431.879 79.6148L430.743 79.0838L428.506 78.566L426.772 77.5955L426.612 77.8522L426.542 78.3919L426.161 78.8749L425.853 78.9794L425.563 79.0055L424.943 78.888H424.613L424.414 79.0577L424.232 79.271L423.98 79.4276L423.334 79.4973L422.68 79.3972L421.431 78.8793L419.984 77.5737L419.515 77.33L418.952 77.3735L418.518 77.6999L418.172 78.2178L417.907 78.8271L417.517 79.4363L417.023 79.6714L414.422 79.9325L414.019 79.8237L413.26 79.2797L412.896 79.1056L410.646 78.7618L410.161 78.579L409.666 78.1699L409.528 77.7347V77.2778L409.45 76.6032L409.35 76.3334L408.89 75.463V75.1758L408.951 74.9147V74.6622L408.739 74.4142L408.249 74.1748L407.785 74.0704L406.814 73.979L404.915 73.5438L400.394 71.3678L399.397 71.0936L398.929 71.1285L398.443 71.2416L397.923 71.2851Z" fill="#22B2B5" fill-opacity="0.15" stroke="white" stroke-width="1.5"/>
<path d="M455.218 207.171L451.442 205.818L448.616 201.178L447.059 199.842L444.06 200.965L441.385 202.51L432.823 203.794L432 204.708L431.215 205.282L428.263 204.373L423.672 203.794L422.125 204.386L421.691 205.387L421.852 206.301L422.979 208.128L422.71 210.435L422.103 213.007L422.411 214.548L422.298 215.923L421.561 217.716L421.128 219.692L421.258 221.167L422.068 221.963L422.745 222.455L423.044 223.273L423.286 224.274L427.66 227.482L426.793 229.079L426.62 230.071L425.185 232.386L423.885 233.692L414.825 239.732L410.823 245.825L409.87 249.907L408.639 252.031L407.915 252.901L408.053 255.543L407.815 256.601L407.035 257.871L406.549 259.103L406.757 259.865L407.191 260.652L408.058 261.618L408.105 262.663L408.972 264.578L410.13 266.501L410.069 268.381L409.415 270.292L409.15 271.967L408.673 273.565L404.837 278.735L403.779 281.716L400.818 286.338L399.305 290.254L398.902 290.916L431.701 305.817L435.841 308.916L447.346 325.762L448.251 325.327L469.9 319.16L471.465 319.447L472.484 320.527L473.147 321.058L475.813 321.789L479.363 324.422L483.898 330.91L486.26 332.951L490.162 332.812L491.137 332.421L491.571 331.729L491.618 330.68L490.158 324.152L490.041 321.584L490.639 312.776L492.004 307.823L493.847 303.354L494.245 299.28L493.721 297.305H493.682L488.905 296.604L486 296.169L485.038 295.764L484.696 292.583L484.262 290.938L484.193 290.141L484.561 287.63L484.158 284.475L484.093 282.826L484.31 280.724L484.262 279.979L484.149 279.618L484.002 279.283L483.946 278.931L484.193 278.182L484.024 277.986L483.781 277.847L483.681 277.638L483.907 277.116L484.656 276.137L484.83 275.566L485.22 272.846L485.276 270.057L484.301 266.393L483.027 261.645L481.856 257.667L480.798 254.05L479.797 250.612L478.822 247.279L477.994 244.45L477.56 242.243L477.521 239.515L477.695 239.032L479.086 237.13L480.655 235.006L482.06 233.087L483.152 231.586L483.985 230.846L484.93 230.249L485.229 229.858L485.389 229.166L485.341 228.565L485.237 227.991L485.32 227.486L485.827 227.147L487.192 227.055L487.626 226.898L487.847 226.515L487.877 226.459L487.617 225.963L487.132 225.528L486.698 225.266L485.732 225.018L484.617 224.94L482.498 225.053L480.244 224.875L477.916 223.904L476.099 222.164L475.38 219.626L475.609 218.486L476.502 216.462L476.563 215.1L475.744 209.765L475.427 206.744L473.178 207.123L455.218 207.171Z" fill="#22B2B5" fill-opacity="0.15" stroke="white" stroke-width="1.5"/>
<path d="M121.948 149.956L121.696 149.194L121.124 148.215L120.595 147.727L112.662 142.866L112.268 141.922L112.74 140.616L113.876 139.419L114.509 136.808V133.166L113.971 131.155L113.473 131.094L113.351 131.042L113.317 130.776L113.408 130.541L113.525 130.311L113.568 130.063L113.386 129.192L113.443 128.87L113.742 128.592L113.473 128.191L113.152 127.495L112.87 126.69L112.762 125.998L112.558 125.611L111.652 124.597L111.557 124.44L97.026 121.524L96.1894 120.68L95.4871 120.902L94.6202 121.428L94.4988 122.133L94.7068 122.734L94.5508 123.295L94.0523 124.279L92.8341 125.698L90.6667 126.664L87.4024 126.377L84.407 125.545L83.3059 124.775L82.8117 124.231L82.2438 123.757L81.8407 123.213L81.6239 122.778L81.2902 122.49L66.3779 123.879L59.1299 122.839L56.6069 123.844L55.9653 124.671L55.9263 126.411L54.5391 128.531L49.8487 130.05L48.9817 131.007L48.6436 131.582L48.041 132.208L47.6379 133.949L46.0426 135.781L45.5701 136.948L44.4387 138.083L43.459 138.675V138.697L44.5731 139.111L45.6395 140.103L46.0123 140.333L46.7882 140.486L47.6552 141.278L48.9904 143.184L49.723 145.025L50.0785 145.495L50.5987 145.638L51.6867 145.312L52.0075 145.382L52.4757 145.704L53.0653 145.66L53.6245 145.382L54.3267 144.781H54.6172L54.9119 144.873L55.2111 144.907L56.1387 144.585L57.9768 144.668L58.5533 144.481L59.1125 144.159L59.572 143.976H60.0532L60.9202 144.32L61.1283 144.355L61.267 144.481L61.4144 145.208L61.5401 145.451L61.7135 145.647L61.9519 145.843L62.5285 146.095L63.1484 146.074L64.3752 145.804L64.917 145.599L65.4112 145.255L65.9271 144.999L66.547 145.06L67.0281 145.403L67.2449 145.887L67.1799 146.448L66.8461 147.027L66.4126 147.44L65.5456 148.006L65.1511 148.585L64.7176 149.02L64.1107 149.09L62.9836 149.024L61.4794 149.838L60.8855 149.969L58.8741 149.908L58.2802 150.117L57.9117 150.53L57.682 151.087L57.5823 151.718V152.306L57.8684 153.668L57.7817 154.164L56.9147 153.894H56.776L56.6416 153.929L56.893 154.647L57.2138 155.326L57.3265 155.474L57.3655 155.622L57.3308 155.765L57.2138 155.905L56.9927 156.088L56.8367 156.318L56.7673 156.605V156.936L57.1444 157.963L58.9868 160.936L60.5821 162.367L61.2713 163.173L61.4794 164.23L61.423 164.378L62.2163 164.643L67.6914 168.995L74.6273 178.518L75.8585 179.388L76.5217 179.34L76.6387 180.089L76.409 181.12L76.4523 182.508L77.406 183.561L79.14 183.374L81.741 183.679L83.6917 183.396L84.7971 182.809L84.9315 181.647L85.4951 180.885L86.4358 180.728L87.047 180.023V179.005L87.4154 178.235L88.6249 177.799L90.3589 175.976L92.1492 175.793L93.2763 175.876L93.8615 175.532L94.0349 173.247L94.3384 172.564L98.4609 172.281L99.4493 171.372L99.5447 170.17L99.0245 169.122L99.3366 168.443L100.173 168.512L101.309 169.492L104.612 171.002L109.038 176.033L110.278 176.211L111.171 176.185L112.038 175.702L113.807 175.197L114.851 174.627L115.177 173.63L115.714 173.491L116.642 175.785L117.266 176.128L118.22 175.258L119.238 173.63L119.811 170.984L119.017 167.712L117.37 166.071L116.187 165.327L114.782 163.586L111.665 156.623L109.662 153.633L110.096 152.728L111.618 151.031L112.276 150.961L113.638 153.811L114.526 154.051L115.476 153.616L116.304 152.802L118.358 152.105V151.2L118.016 150.439L117.175 149.333L116.659 147.91L117.695 147.614L121.948 149.956Z" fill="#22B2B5" fill-opacity="0.15" stroke="white" stroke-width="1.5"/>
<path d="M140.64 50.4393L138.78 50.0476H137.857L137.215 50.4045L136.643 50.9789L135.91 51.4402L135.134 51.7753L134.441 51.9799L133.114 51.8667L133.279 52.2453L134.198 53.0679L134.796 53.8512L134.957 54.5432L135.655 54.8304L136.743 55.0828L137.176 55.5572L136.916 56.2317L130.405 64.0043L129.824 65.4405L129.573 67.3858L128.671 68.8089L128.602 70.8152L131.255 78.1917L136.023 85.7642L137.614 87.4135L139.452 88.8714L140.419 90.1161L140.445 91.1475L140.323 92.7447L140.566 94.6509L140.878 95.5212L145.213 98.3152L148.408 101.71L149.635 103.699L151.343 109.648L154.065 110.953L154.121 111.567L154.481 112.716L156.111 114.792L157.867 116.45L161.825 117.638L163.299 117.581L164.166 117.729L164.794 118.164L167.451 118.695L168.882 118.439L174.301 115.488L174.899 115.279L175.532 114.935L177.929 114.404L181.83 114.787L183.326 113.817L185.09 110.636L185.762 107.655L186.92 106.493L188.424 105.692L189.404 104.321L189.685 103.398V103.276L187.869 102.04L187.314 101.879L186.881 101.614L185.463 99.8732L183.378 98.2934L182.368 97.3273L181.501 95.8868L180.825 93.9197L180.391 93.2713L180.127 92.749L179.75 91.4435L179.498 90.9343L179.611 89.6287L178.696 88.7583L177.344 88.2274L173.598 87.357L171.197 86.4126L171.418 86.1167L171.587 86.1471L171.908 86.2342L172.177 86.1863L171.153 85.6466L170.221 85.8251L169.237 86.2298L168.045 86.4126L156.965 84.9068L154.798 84.1713L150.142 81.7386L148.039 80.2154L146.097 78.1874L144.632 75.9853L144.034 74.6057L143.735 73.1652L143.778 72.9085L143.869 72.5777V72.2034L142.846 70.5323L142.629 69.9665L142.504 69.1745L142.534 68.3433L142.764 67.6339L141.563 63.3516L141.169 58.8516L140.618 57.4895L140.562 55.5441L140.358 54.7564L140.687 53.6771L140.64 50.4393Z" fill="#22B2B5" fill-opacity="0.15" stroke="white" stroke-width="1.5"/>
<path d="M75.8361 179.353L74.605 178.483L67.669 168.96L62.194 164.608L61.4007 164.343L61.249 164.7L60.8935 165.135L60.6334 165.57L60.7114 166.132L61.1146 166.41H62.2287L62.6622 166.771L62.5625 167.711L61.9426 168.786L61.5524 169.787L62.142 170.488L61.9209 170.923L61.6088 171.089L61.2533 171.158L60.512 171.406L60.0005 171.271L59.7144 171.302L58.9384 171.767L58.5049 172.168L58.0454 172.285L57.1784 171.915L56.81 171.942L56.5109 171.815L55.904 171.419L55.4705 171.271L55.2667 171.354L54.8722 172.011L54.8419 172.181L54.9199 172.616L54.8636 172.781L54.6902 172.873L54.287 172.916L54.0963 172.977L53.7928 173.278L53.6541 173.713V174.183L53.7365 174.657L54.0009 175.571L53.9272 176.237L53.6801 176.881L53.459 177.751L53.0255 178.339L52.2453 178.065L51.9071 177.882L51.3913 177.603L50.7237 177.638L50.5329 178.317L50.5893 179.214L50.4419 180.084L49.6399 180.645L48.8206 180.728L48.4565 180.88L48.1704 181.281L48.0837 181.716L48.1531 182.43L48.062 182.834L47.2601 183.757L47.039 184.323L47.4725 184.815L47.7109 184.954L47.9667 185.158L48.1834 185.406L48.2831 185.702L48.3698 186.072L48.5129 186.29L48.6559 186.455L48.7816 186.703L48.8727 187.365V188.031L48.9637 188.623L49.2845 189.084L49.3668 189.31V189.689L49.2888 190.063L49.1718 190.289L49.0027 190.324L48.3611 190.098L46.3844 189.941L45.4914 189.724L44.503 189.197L43.3846 188.871L43.2632 189.832L43.5016 191.256L43.4583 192.296L43.3283 192.574L43.1592 192.827L42.9728 193.044L42.7647 193.24L41.2518 193.584L40.9744 194.045L41.8414 196.926L42.2142 197.688L42.743 198.084L43.3196 197.618H43.9612L44.5594 197.992L44.9929 198.689L45.1533 199.476L45.0969 200.347L44.7068 202.035L44.568 202.349L44.1649 203.015L44.1042 203.332L44.2429 203.733L44.4553 204.033L44.6157 204.333V204.725L44.3253 205.117L43.1635 206.083L42.73 206.518L42.0234 207.14L41.7026 207.919L41.4599 208.79L41.0264 209.76L40.7923 210.013L40.5105 210.208L39.8906 210.487L40.4932 211.327L41.1391 211.697L41.8934 211.745L42.7604 211.614H42.8341L42.8991 211.644L42.9468 211.692L45.5174 216.384L45.8989 216.819L46.3324 217.193L46.7095 217.628L46.9176 218.207L47.0433 218.908L47.2384 219.522L47.5288 220.087L47.919 220.653L48.3525 221.088L49.7093 222.067L49.8133 222.337L50.4679 221.785L51.0748 216.745L52.1759 213.263L52.488 211.027L52.0849 209.69L52.6224 209.068L54.313 209.116L58.7867 208.55L63.1217 210.335L65.4452 210.504L67.7731 211.035L69.7108 212.228L71.8263 214.082L79.0656 216.432L82.4296 216.706L87.3367 215.448L91.8538 215.657L92.4563 214.469L92.8551 212.21L92.4217 211.34L91.6283 210.143V209.081L96.2581 208.002L97.2335 208.089L97.7146 208.233L98.2175 207.876L98.6293 207.201L98.5166 206.936L98.4863 206.557L98.573 205.904L98.5166 205.5L98.3692 205.221L98.1741 205.012L98.0007 204.781L97.9314 204.438L98.1048 203.942L99.7607 203.115L101.824 203.01L103.224 202.283L103.393 200.325L103.129 198.432L103.211 197.649L103.766 197.279L104.603 197.052L106.588 197.327L107.082 196.334L108.149 194.72L111.006 194.506L114.244 195.207L115.111 194.472L115.037 192.844L115.358 190.524L115.063 189.088L114.513 188.248L113.854 188.396L112.523 188.984L110.061 191.565L109.324 190.437L108.89 188.984L108.11 188.57L107.165 188.383L105.045 187.217L103.584 186.024L103.307 184.628L103.714 184.075L104.633 183.714L107.52 183.374L108.877 181.368L110.017 178.787L110.967 177.686L111.118 176.698V176.167L110.225 176.193L108.986 176.015L104.56 170.984L101.256 169.474L100.121 168.495L99.2839 168.425L98.9718 169.104L99.492 170.153L99.3966 171.354L98.4082 172.264L94.2857 172.546L93.9822 173.23L93.8088 175.514L93.2236 175.858L92.0965 175.776L90.3062 175.958L88.5722 177.782L87.3627 178.217L86.9943 178.987V180.006L86.3831 180.711L85.4424 180.867L84.8788 181.629L84.7444 182.791L83.6607 183.378L81.71 183.661L79.109 183.357L77.375 183.544L76.4213 182.491L76.378 181.102L76.6077 180.071L76.4907 179.322L75.8361 179.353Z" fill="#22B2B5" fill-opacity="0.15" stroke="white" stroke-width="1.5"/>
<path d="M81.9995 32.7137L83.2696 32.4743L84.4227 31.7954L86.2131 31.5604L88.7143 29.8196L89.3126 29.0015L89.5033 28.3226L89.6117 27.5914L89.0828 25.311L88.6493 24.5538L87.7823 24.1186L87.3835 23.6834L87.3488 23.3004L87.2448 23.2308L87.0237 22.4866L85.2897 23.4745L84.9429 23.5354L84.5094 23.4179L83.7031 23.0567H83.248L82.7754 23.2786L82.342 23.6398L81.9518 24.1011L81.2062 25.4067L81.0458 25.6287L80.816 25.8202L80.3349 26.0856L80.1138 26.2641L79.767 26.8168L79.2511 27.9526L78.7786 28.3878L77.1053 29.2582L76.5765 29.6934L76.1906 30.1939L75.3757 31.8825L75.0506 32.4221L74.6517 32.8573L74.2182 33.2272L73.7544 33.5231L73.1258 33.7799L72.61 33.8104L72.0898 33.6624L69.0857 32.3133L68.6955 32.2306L68.3834 32.2698L67.6855 32.4961L66.5714 32.544L66.1899 32.6266L65.6307 32.9008L64.1351 33.9975L63.6279 34.2412L61.7119 34.4936L61.4258 34.5372L59.7525 34.102L57.8451 33.2316L51.7762 31.926L51.1129 31.6605L49.639 31.0817L47.0684 31.0512L45.4255 30.6465L44.6278 30.6204L44.4067 30.5682L44.2724 30.542L43.6828 30.1939L43.2233 30.0677L43.0412 30.2548L39.8637 33.6668L39.2265 35.2204L38.3898 39.1372L38.7843 41.2566L39.5256 43.215V45.0558L38.4462 47.0142L33.5043 52.1669L31.857 54.9957L31.5449 56.5972L31.9264 57.8288L33.7514 60.3182H33.9465V60.8273L34.1156 61.1015L34.3496 61.2974L34.5404 61.5976L34.7138 62.2548L34.7615 62.6552L34.6444 62.8379L34.5534 63.0251V64.248L35.5504 74.1443L36.127 74.9277L36.2614 75.2193L36.296 75.3672L36.5258 77.5693L36.4001 77.7652L36.127 77.9175L35.8625 78.1438L35.7368 78.5572L35.9536 79.1273L36.3524 79.8628L36.5388 80.5287L38.4765 82.8613L39.1875 84.5281L38.858 89.0585L39.2568 91.0212L40.3406 92.6663L48.7547 98.2194L52.5088 98.8896L55.5866 98.9375L59.5791 102.597L60.0689 103.568L63.654 105.605L64.8937 106.762L66.2332 107.328L67.1002 106.741L67.5727 105.988L67.6638 105.666L68.0973 104.652L69.0423 103.463L70.7763 102.332L72.2025 102.027L72.9004 102.106L73.6937 101.353L74.9075 100.548L76.234 100.765L77.1573 101.692L78.2974 102.415L79.767 102.741L80.673 103.524L80.803 104.295L80.4216 104.834L81.5703 108.181L81.5443 110.588L82.5804 112.111L85.3894 112.498L92.2343 111.702L92.0609 110.527V108.786L92.6115 107.646L96.9811 103.185L98.1906 101.157L99.0575 100.526L100.956 99.612L102.53 97.8973L103.527 97.2968L104.546 96.8616L113.614 95.8084L116.341 96.2436L118.218 95.9302L125.111 96.6483L127.278 95.7779L128.279 94.9728L128.613 94.777L128.219 94.6334L127.82 94.4158L127.556 94.4549L127.152 93.6237L126.741 93.4018L125.752 93.4496L125.319 93.6019L125.063 93.924H124.846L124.994 93.38L125.063 93.1755L123.762 92.1005L123.147 91.4695L121.378 90.2945L120.572 88.5058L120.338 85.8598L119.566 85.1983L117.446 84.0886L116.801 83.9624L116.618 84.0668L113.805 82.326L112.938 78.3266L113.194 74.9973L113.84 73.6003L114.143 72.5907L113.835 71.9292L111.911 70.1362L109.635 67.0202L108.178 63.3906L107.996 60.4661L107.129 57.7679L105.144 56.7365L98.6674 57.6852L97.8264 57.5329L97.4276 57.237L96.5173 56.3448L94.6792 56.5668L93.2921 57.1195L92.9496 55.9793L93.084 54.0862L93.6735 52.737L94.4061 51.7796L95.3165 50.0649L97.6227 48.3677L98.8278 47.0621L100.792 46.4833L102.859 46.814L104.268 45.8522L103.718 44.0375L102.205 43.1671V42.1313L103.267 40.6908L103.57 38.2102L101.906 34.0193L101.832 31.2253L101.398 30.5682L101.802 26.3381L100.661 25.9029L98.7584 27.5784L96.812 28.7534L95.6416 28.6446L93.4741 30.1199L90.1752 35.9124L90.5654 36.5129L90.9989 36.6827L90.6434 37.1483L88.84 38.5192L87.7476 40.0163L86.5425 40.9955L82.2292 39.7639L80.3349 40.3035L78.3581 41.3741L76.3944 42.0922L74.9162 41.2914L74.0969 39.2634L74.5607 36.9481L75.7181 35.4206L76.4898 34.9636L76.7845 34.4327L77.8553 34.3152L79.3898 34.6851L79.7843 34.337L79.9794 33.3055V32.2176L80.0531 31.6518L80.6513 31.6126L81.9995 32.7137Z" fill="#22B2B5" fill-opacity="0.15" stroke="white" stroke-width="1.5"/>
<path d="M17.1611 0.561279L16.4502 0.770172L13.3854 3.30737L13.2597 3.74256L13.4071 4.97417L13.3507 5.40936V5.54863L13.186 6.0404L12.2323 7.96832L12.0979 8.47315L12.0416 9.09547L12.0979 9.61771L12.1976 10.1008V10.536L11.9115 10.9712L11.7641 11.8111L11.8682 12.5161V13.195L11.3826 13.9349L10.8321 14.3483L9.33221 15.0315L8.69931 15.1882L7.9667 15.1229L5.97696 14.122L5.2877 14.048L3.72711 14.4832L3.0552 14.5528L2.41796 14.4788H1.98446L1.55097 14.6312L0.961411 15.0011L0.640625 15.458L0.814021 15.8932L1.57264 16.7897V16.8115L1.69835 17.1597L1.86308 17.9561L2.20554 18.6959V18.9701L2.13618 19.2225V19.5576L2.23589 19.8709L2.58268 20.6151V20.9415L2.37894 21.6204L2.41362 21.9425L3.15923 22.5213L4.45972 23.2002L5.5738 23.9922L5.81223 24.9149L5.24001 26.042L5.09262 26.6339L5.35706 28.1048L5.07962 28.54L4.61144 28.9317L4.20829 29.6237L4.36435 29.8848L4.45105 30.1372L4.57243 30.7073L4.74583 30.9815L5.01026 31.186L5.22701 31.4167V31.7518V32.0608L5.32671 32.3436L5.45243 32.6265L5.72986 33.4577L6.12001 34.0235L6.58818 34.4587L8.11843 35.1898L8.25714 36.2822L7.47251 38.9673L7.35981 39.7159L7.40749 40.1772L7.55488 40.6124L7.70227 41.2739L7.56788 41.548L7.31646 41.8005L7.23409 42.0311L7.58956 42.2182L8.11409 42.388L8.33517 42.5359L8.54325 42.7709L8.75133 43.3889V44.1549L8.61694 45.6171L8.88138 47.4972L8.84669 48.1369L8.47822 49.6253V50.0605L8.56926 51.0005V51.34L8.47822 51.9449L8.56493 52.2669L8.82936 52.4541L9.26285 52.6542L10.6977 52.9241L11.6514 52.3627L12.0112 52.2843L12.4447 52.4584L12.8782 52.8109L13.225 53.307L13.4461 53.8859V54.4734L12.7958 55.4177L11.6861 56.3012L10.8798 57.2325L11.0055 58.995L10.9015 59.7131L10.7237 60.4355L10.5373 60.9708L10.3206 61.2581L9.80472 61.4757L9.57064 61.6846L9.52729 62.0066L9.76571 62.6986L9.60531 62.9292L9.04611 63.2034L8.66896 63.5037L8.40453 63.9737L8.16177 64.744L7.91035 65.3097L7.21675 66.0975L6.95232 66.6284L6.70956 67.0984L6.53183 67.5336L6.48414 68.0036L6.62286 68.5215L6.65321 68.9828L6.39311 69.3745L6.10267 69.7531L6.05932 69.8836L5.97696 70.1665L6.47981 70.9629L7.48985 71.1283L9.35389 70.9064L9.69635 71.0108L10.7324 71.52L11.0489 71.7376L11.2136 72.0727L11.3176 72.5079L11.4867 72.9648L11.8075 73.3739L12.0286 73.4523L12.2236 73.3739L12.4144 73.3391L12.6354 73.5088V73.6916L12.5184 74.2791V74.4924L12.7308 74.9276L13.1383 74.9711L13.5978 74.8014L13.9663 74.5925L14.7509 74.5011L15.5529 74.871L16.2725 75.502L17.3389 76.8076L17.3996 77.1514L17.1091 77.6258L16.1034 78.4396L15.8693 78.7573L15.7436 79.8627L16.3202 80.5286L16.9661 81.016L17.0875 81.647L16.8274 82.4129L16.6366 83.3138L16.5803 84.2147L16.7363 84.9588L16.8534 85.5768L16.4719 86.6648L16.6453 87.261L17.0354 87.483L18.1062 87.5831L18.5397 87.9225L18.9428 88.967L19.2159 89.2673L20.2606 89.1063L20.5251 89.4414L20.6941 89.9505L20.9369 90.4467L22.5928 91.5173L23.2474 92.2875L23.1564 93.4626L22.8183 93.8978L22.4194 94.1284L22.064 94.4374L21.8646 95.0859L21.9513 95.8213L22.2244 96.435L22.4064 97.0486L22.2244 97.7492L21.8342 98.7981V99.1549L22.0553 99.799L22.2287 100.038L22.4324 100.134L22.6492 100.199L22.8573 100.352L22.97 100.587L23.113 101.139L23.2474 101.322L23.5205 101.379L24.0841 101.205H24.3615L24.5653 101.314L24.8904 101.679L25.5189 102.005L25.714 102.336L25.662 102.728L25.3499 103.133L25.1895 104.099L25.3499 104.734L25.6143 105.33L25.753 106.14L25.6013 107.01L25.1982 107.663L24.1968 108.912L23.8847 109.782L24.1144 110.409L24.6866 110.801L25.4366 110.971L26.3296 110.918L26.7631 110.992L27.1272 111.31L27.3916 111.628L27.6908 111.845L28.0245 111.95H28.4017L28.8829 112.215L29.3164 112.794L30.0186 114.1L30.3264 114.874L30.2744 115.549L29.7195 116.854L29.3987 118.099L29.3727 118.861L29.2817 118.93L28.9262 119.07L28.8005 119.157L28.7398 119.727L29.1733 120.275L29.2773 120.366L29.7369 120.758L30.1053 121.163L30.1357 121.672L30.3177 121.968L30.5648 122.203L30.7946 122.555L30.9333 123.021L30.9853 123.369L31.0894 123.7L31.4145 124.083L32.2034 124.449L33.0401 124.383L34.6007 123.757L35.3333 123.813L35.8361 124.457L36.1483 125.358L36.287 126.189L36.365 127.734L36.5601 128.365L37.1019 129.057L36.4084 129.492L36.5687 129.928L37.1019 130.363L37.5354 130.798L37.6698 131.49L37.6005 133.139L37.7479 133.897L38.6148 135.063L38.979 135.79L38.8576 136.512L38.5065 137.078L38.1553 137.809L37.9819 138.553L38.1683 139.123L38.6755 139.646L39.2954 139.728L39.937 139.515L40.5092 139.123L41.0251 138.984L41.9788 138.501H42.7331L43.3703 138.74V138.719L44.35 138.127L45.4814 136.991L45.9539 135.825L47.5492 133.992L47.9523 132.252L48.5809 131.603L48.919 131.029L49.786 130.071L54.5415 128.509L55.9287 126.39L55.9677 124.649L56.6093 123.822L59.1322 122.817L66.3802 123.857L81.2925 122.468L81.6263 122.756L81.843 123.191L82.2462 123.735L82.8271 124.227L83.3213 124.771L84.4223 125.541L87.4178 126.372L90.682 126.659L92.8495 125.693L94.0676 124.274L94.5661 123.291L94.7222 122.73L94.5141 122.129L94.6355 121.424L95.5025 120.897L96.2047 120.675L92.2122 111.697L85.3673 112.494L82.5583 112.106L81.5222 110.583L81.5483 108.177L80.3995 104.83L80.781 104.29L80.6509 103.52L79.7449 102.737L78.2754 102.41L77.1353 101.688L76.2163 100.765L74.8898 100.548L73.676 101.353L72.8827 102.106L72.1848 102.027L70.7585 102.332L69.0246 103.463L68.0795 104.651L67.646 105.665L67.555 105.988L67.0825 106.74L66.2155 107.328L64.876 106.762L63.6449 105.605L60.0599 103.568L59.57 102.597L55.5862 98.9504L52.5084 98.9025L48.7543 98.2323L40.3402 92.6792L39.2564 91.0342L38.8576 89.0714L39.1871 84.5411L38.4761 82.8481L36.5384 80.5155L36.352 79.8496L35.9532 79.1142L35.7364 78.544L35.8621 78.1306L36.1266 77.9043L36.3997 77.752L36.5254 77.5562L36.2956 75.3541L36.261 75.2061L36.1266 74.9145L35.55 74.1312L34.54 64.2348V63.0119L34.631 62.8248L34.7481 62.642L34.7004 62.2416L34.527 61.5845L34.3362 61.2842L34.1022 61.0883L33.9331 60.8142V60.305H33.7337L31.9087 57.8157L31.5272 56.5841L31.8393 54.9825L33.4649 52.2234L38.4068 47.0707L39.4862 45.1123V43.2714L38.7449 41.313L38.3504 39.1936L39.1871 35.2769L39.8243 33.7232L43.0018 30.3113L43.1839 30.1241L42.8414 30.0328L42.1868 29.7107L41.5756 29.2973L41.2418 28.8969L41.1898 28.5009L41.2765 28.1788L41.3936 27.8698L41.4542 27.4869L41.3155 27.2344L40.6263 26.9255L40.3575 26.7166L40.2101 26.4076L39.9847 25.6068L39.8676 25.3109L39.5945 25.0193L39.3258 24.8583L39.0744 24.6668L38.8836 24.2925L39.135 23.7398L38.9703 23.3394L38.5845 23.0957L38.1813 23.0174L37.8952 22.8781V22.5648L37.9733 22.2079L37.8866 21.9773L37.6221 21.9425L37.3577 22.0469L37.1583 22.1862L37.0889 22.2558L34.0545 21.2549L33.3045 21.4855L33.1181 20.9197L32.8147 19.0615L32.6153 18.6611L32.3725 18.2999L32.1948 17.9082L31.7309 16.6983L31.5012 16.3415L31.2368 16.1848L30.9463 15.8367L30.7079 15.445L30.6168 15.1795L30.4565 14.9837L29.4334 14.2787L29.3294 14.1437L29.2643 13.9784L29.1603 13.8304L28.9392 13.7695H28.6271L28.4797 13.7434L27.7254 13.2168L27.6214 12.9513L27.8598 12.5161L27.2616 11.9765L26.9061 11.2192L26.0391 7.61145L25.688 6.80199L25.0811 6.36679L25.1938 6.25799L25.2762 6.08827L24.6173 6.06651L23.9974 5.94901L23.8847 5.87938L23.4728 5.64002L23.3991 5.53122L21.0583 3.8209L20.4947 3.34218L18.7607 2.53707L18.3619 2.10188L17.5903 0.913787L17.1611 0.561279Z" fill="#22B2B5" fill-opacity="0.15" stroke="white" stroke-width="1.5"/>
<path d="M161.837 117.664L157.879 116.476L156.124 114.818L154.494 112.742L154.134 111.593L154.078 110.979L151.355 109.674L149.006 110.483L145.867 112.581L144.697 115.318L145.295 117.603L146.838 119.54L147.766 121.881L148.728 123.343L150.155 124.066L151.022 124.122L151.576 124.427L152.123 125.023L152.873 125.458L153.41 126.438L153.878 128.213L154.789 129.715L155.452 131.199L155.885 135.002L155.222 135.981L149.964 137.409L147.059 139.067L145.291 141.078L145.139 142.492L145.178 142.892L142.547 141.665L140.661 141.535L138.06 142.266L136.473 143.441L135.429 143.654L134.198 143.697L133.292 143.902L132.693 144.307L132.776 145.416L136.43 148.724L138.576 151.901L139.92 151.305L143.076 151.361L145.481 152.745L146.574 154.129L145.707 155.474L147.679 156.984L151.364 157.619L152.17 157.397L156.267 158.446L156.978 158.942L162.037 158.803L162.904 156.801L164.113 155.9L169.185 154.347L170.685 153.598L172.263 153.137L173.594 153.063L178.761 150.796L180.495 150.695L181.362 150.822L180.69 149.79L179.966 148.128L179.732 147.031L180.083 145.638L181.674 144.098L187.509 141.234L188.493 140.294L188.835 138.989L190.214 136.103L191.129 133.005L189.793 131.847L187.747 131.229L186.681 130.315L185.211 128.278L186.048 127.012L189.312 126.742L196.166 127.473L196.14 126.764L195.806 125.785L191.137 122.203L189.542 121.333L181.86 114.805L177.959 114.422L175.562 114.953L174.929 115.297L174.331 115.505L168.912 118.456L167.481 118.713L164.824 118.182L164.196 117.747L163.329 117.599L161.837 117.664Z" fill="#22B2B5" fill-opacity="0.15" stroke="white" stroke-width="1.5"/>
<path d="M140.876 95.5387L138.934 94.4985L137.924 94.8119L136.789 95.5952L135.753 95.456L134.929 94.9947L134.37 95.2123L134.023 95.8346V96.4482L133.633 97.101L132.74 97.2881L130.572 94.9816L129.389 94.5464L128.543 94.7814L128.21 94.9773L127.208 95.7824L125.041 96.6528L118.179 95.9042L116.302 96.2176L113.575 95.7824L104.506 96.8355L103.487 97.2707L102.49 97.8713L100.925 99.6034L99.0268 100.517L98.1598 101.148L96.9503 103.176L92.572 107.655L92.0215 108.795V110.536L92.1949 111.711L96.1874 120.689L97.024 121.533L111.546 124.444L111.641 124.601L112.547 125.615L112.751 126.002L112.86 126.694L113.141 127.499L113.462 128.196L113.731 128.596L113.432 128.875L113.375 129.197L113.558 130.067L113.514 130.315L113.397 130.546L113.306 130.781L113.341 131.046L113.462 131.099L113.961 131.159L114.507 133.179V136.821L113.874 139.433L112.738 140.629L112.266 141.935L112.66 142.879L120.593 147.74L121.122 148.228L121.694 149.207L121.946 149.969L122.921 151.753L124.222 152.562L130.408 152.771L132.935 154.16L135.358 154.76L137.526 153.99L138.583 152.541L138.562 151.914L136.416 148.737L132.761 145.43L132.679 144.32L133.277 143.915L134.183 143.71L135.414 143.667L136.459 143.454L138.067 142.261L140.668 141.53L142.554 141.661L145.185 142.888L145.146 142.488L145.298 141.073L147.067 139.063L149.971 137.404L155.229 135.977L155.893 134.998L155.459 131.194L154.796 129.71L153.886 128.209L153.417 126.433L152.88 125.454L152.13 125.019L151.584 124.423L151.029 124.118L150.162 124.061L148.727 123.322L147.765 121.859L146.837 119.518L145.294 117.581L144.709 115.31L145.879 112.572L149.017 110.475L151.367 109.665L149.646 103.738L148.419 101.749L145.224 98.3544L140.876 95.5387Z" fill="#22B2B5" fill-opacity="0.15" stroke="white" stroke-width="1.5"/>
<path d="M121.946 149.955L117.702 147.627L116.666 147.923L117.182 149.346L118.023 150.452L118.365 151.213V152.118L116.31 152.815L115.482 153.629L114.533 154.064L113.644 153.824L112.283 150.974L111.624 151.043L110.103 152.741L109.669 153.646L111.672 156.636L114.789 163.599L116.193 165.34L117.377 166.084L119.024 167.725L119.817 170.997L119.245 173.643L118.226 175.271L117.273 176.141L116.648 175.797L115.721 173.504L115.183 173.643L114.858 174.64L113.813 175.21L112.045 175.715L111.178 176.198V176.729L111.026 177.717L110.077 178.818L108.937 181.398L107.571 183.379L104.684 183.718L103.765 184.079L103.357 184.632L103.635 186.029L105.096 187.221L107.216 188.388L108.161 188.575L108.941 188.988L109.374 190.442L110.111 191.569L112.574 188.988L113.904 188.401L114.563 188.253L115.114 189.093L115.409 190.529L115.088 192.848L115.162 194.476L114.295 195.212L111.056 194.511L108.2 194.724L107.133 196.339L106.639 197.331L107.359 197.653L108.598 198.458L109.188 199.329L121.564 207.51L127.967 208.285L129.033 208.69L129.9 208.459L131.413 206.892L132.168 206.683L133.698 206.775L135.592 206.566L143.408 209.926L146.412 207.21L146.919 206.505L147.01 205.687L146.482 203.428L146.312 201.522L145.879 199.603L143.842 195.564L143.612 191.874L143.126 189.654L141.674 189.08L141.241 188.092L142.242 187.687L145.216 187.996L146.547 188.64L147.192 188.492L146.698 185.772L146.802 183.305L147.57 182.047L147.912 180.802L147.591 178.744L148.311 177.647L153.561 177.368L156.049 177.804L156.742 178.818L156.131 180.123L156.565 181.725L157.7 183.083L158.632 183.953L159.894 184.079L160.596 182.652L159.976 178.853L159.252 177.112L157.869 175.462L156.413 174.731L153.322 173.861L152.022 173.195L151.358 172.547L151.28 172.042L151.796 171.45L152.663 171.358L154.328 170.841L155.719 169.196L155.36 167.572L154.059 165.396L153.513 163.02L154.419 161.867L155.199 161.806L155.264 162.467L155.234 163.364L155.797 164.182L156.781 164.365L157.757 163.281L157.861 161.915L157.176 161.014L156.933 159.747L156.955 158.903L156.244 158.407L152.147 157.358L151.341 157.58L147.656 156.945L145.684 155.435L146.551 154.09L145.459 152.706L143.053 151.322L139.897 151.265L138.553 151.862L138.575 152.488L137.517 153.938L135.349 154.708L132.926 154.107L130.403 152.758L124.217 152.549L122.917 151.74L121.946 149.955Z" fill="#22B2B5" fill-opacity="0.25" stroke="white" stroke-width="1.5"/>
<path d="M227.341 178.844L210.921 169.017L203.985 166.911L195.705 166.819V166.732L194.89 167.886L193.932 170.645L193.429 176.072L193.082 177.43L192.553 177.743L189.562 178.757L185.99 179.323L184.256 180.463L181.746 181.185L179.145 180.833L177.502 182.169L177.459 184.471L178.057 185.315L177.754 186.025L175.062 187.548L174.793 189.358L176.354 191.19L177.628 192.344L178.673 192.827L179.822 192.722L180.689 193.245L181.529 194.246L181.963 195.281L181.846 196.722L182.544 198.463L183.879 200.129L185.782 201.722L193.26 202.401L196.225 204.042L202.884 205.861L202.064 205.426L201.462 203.916L202.329 197.039L202.667 196.021L203.746 194.929L206.49 193.728L212.72 193.005L214.948 193.118L224.671 190.586L225.625 189.202L226.895 186.212L227.675 183.126L227.749 180.254L227.341 178.844Z" fill="#22B2B5" fill-opacity="0.25" stroke="white" stroke-width="1.5"/>
<path d="M193.166 154.93L192.958 153.746V151.775L191.843 150.447L190.222 150.426L189.849 151.392L190.963 152.941V153.537L190.673 154.068L189.94 153.633L188.284 152.127L185.458 151.3L182.554 151.117L181.305 150.822L180.438 150.695L178.704 150.795L173.537 153.063L172.206 153.137L170.628 153.598L169.128 154.347L164.056 155.9L162.847 156.801L161.98 158.803L156.921 158.942L156.899 159.787L157.142 161.053L157.827 161.954L157.723 163.32L156.748 164.404L155.764 164.221L155.2 163.403L155.23 162.507L155.165 161.845L154.385 161.906L153.479 163.059L154.025 165.435L155.326 167.611L155.686 169.235L154.294 170.88L152.629 171.398L151.762 171.489L151.268 172.063L151.346 172.568L152.01 173.217L153.31 173.883L156.401 174.753L157.879 175.467L159.262 177.116L159.986 178.857L160.606 182.656L159.882 184.075L158.62 183.949L157.688 183.078L156.553 181.72L156.119 180.119L156.73 178.813L156.037 177.799L153.548 177.364L148.299 177.643L147.579 178.739L147.9 180.798L147.558 182.043L146.79 183.3L146.686 185.768L147.18 188.488L146.534 188.636L145.204 187.992L142.23 187.683L141.229 188.087L141.662 189.075L143.119 189.654L143.604 191.874L143.842 195.564L145.893 199.611L146.326 201.531L146.495 203.437L147.024 205.695L146.933 206.514L146.443 207.223L143.409 209.926L142.976 210.665L142.767 211.797L143.127 212.741L143.227 213.542L142.074 216.218L141.831 216.989L141.684 217.824L142.061 218.555L143.526 219.426L145.433 220.127L148.685 220.414L149.478 220.705L151.784 219.239L152.33 218.664L153.31 215.618L154.611 214.882L156.197 214.338L157.645 213.507L159.227 214.016L160.493 215.557L161.282 216.906L161.308 217.833L160.849 218.83L160.536 219.861L160.814 220.675L161.755 221.484L163.922 222.581L164.91 223.63L165.803 224.339L166.48 223.904L166.666 223.003L167.23 221.876L168.24 221.149L168.89 221.541L169.323 222.368L170.255 223.095L170.875 223.739L170.836 224.757L171.036 225.745L172.882 226.746L173.134 227.024L175.522 225.031L180.1 222.298L192.112 219.117L193.916 217.998L195.532 216.619L197.353 216.04H199L199.768 214.669L202.52 207.972L202.867 205.887L196.209 204.068L193.261 202.401L185.805 201.7L183.902 200.108L182.567 198.441L181.869 196.7L181.986 195.259L181.552 194.224L180.711 193.223L179.844 192.7L178.696 192.805L177.655 192.331L176.381 191.177L174.82 189.345L175.089 187.535L177.781 186.012L178.084 185.302L177.486 184.458L177.529 182.156L179.172 180.82L181.773 181.172L184.283 180.45L186.017 179.31L189.589 178.744L192.58 177.73L193.109 177.416L193.456 176.059L193.959 170.632L194.917 167.873L195.732 166.719L198.229 158.607V156.122L197.492 154.677L196.157 152.998L194.83 153.124L194.033 154.769L193.166 154.93Z" fill="#22B2B5" fill-opacity="0.15" stroke="white" stroke-width="1.5"/>
<path d="M114.222 2.9812L113.888 3.48603L113.589 3.76456L113.234 3.85595L111.04 3.81243L110.355 4.00391L109.8 4.39559L109.367 4.8569L108.127 6.12767L104.659 8.09475L104.143 8.38634L102.617 9.94869L102.24 10.2055L101.594 10.2751L99.5785 10.9758L98.3734 11.6373L97.4284 12.438L95.9979 14.2963L95.0442 15.2755L94.1772 15.7716L93.8434 15.9588L90.9563 17.0903L89.5778 17.9389L89.2917 18.2609L89.1963 18.6309L88.1559 20.3151L87.6704 21.7294L87.523 22.008L87.2152 22.3648L87.0245 22.4736L87.2456 23.2178L87.3496 23.2875L87.3843 23.6704L87.7831 24.1056L88.6501 24.5408L89.0836 25.2981L89.6125 27.5785L89.5041 28.3096L89.3134 28.9885L88.7151 29.8067L86.2139 31.5475L84.4235 31.7825L83.2704 32.4614L82.0003 32.7007L80.6695 31.5997L80.0712 31.6389L79.9975 32.2046V33.2926L79.8025 34.324L79.408 34.6722L77.8734 34.3023L76.8027 34.4198L76.5079 34.9507L75.7189 35.412L74.5615 36.9395L74.0977 39.2548L74.917 41.2828L76.3952 42.101L78.3589 41.3829L80.3357 40.3123L82.23 39.7727L86.5433 41.0043L87.7484 40.0251L88.8408 38.528L90.6442 37.1571L90.9997 36.6915L90.5662 36.5218L90.176 35.9212L93.4749 30.1287L95.6424 28.6534L96.8128 28.7622L98.7592 27.5785L100.619 25.9073L101.759 26.3425L101.36 30.5813L101.794 31.2385L101.867 34.0324L103.532 38.2234L103.229 40.704L102.167 42.1445V43.1803L103.679 44.0507L104.23 45.8654L102.821 46.8272L100.753 46.4965L98.7896 47.0753L97.5845 48.3808L95.2783 50.0781L94.3679 51.7928L93.6353 52.7502L93.0458 54.0993L92.9114 55.9924L93.2538 57.1326L94.641 56.58L96.479 56.358L97.3894 57.2501L97.7882 57.5461L98.6292 57.6984L105.145 56.7366L107.16 57.7419L108.027 60.4401L108.209 63.3647L109.666 66.9942L111.942 70.1102L113.867 71.9032L114.174 72.5647L113.871 73.5744L113.225 74.9713L112.969 78.3006L113.836 82.3L116.65 84.0408L116.832 83.9364L117.478 84.0626L119.567 85.1984L120.326 85.8686L120.56 88.5146L121.305 90.2946L123.074 91.4696L123.69 92.1007L124.99 93.1756L124.921 93.3801L124.773 93.9241H124.99L125.246 93.6021L125.679 93.4497L126.668 93.4019L127.08 93.6238L127.483 94.4551L127.747 94.4159L128.146 94.6335L128.54 94.7771L129.386 94.5421L130.569 94.9773L132.737 97.2838L133.63 97.0967L134.02 96.4439V95.8303L134.367 95.2079L134.926 94.9903L135.749 95.4517L136.785 95.5909L137.921 94.8076L138.931 94.4942L140.873 95.5343L140.561 94.664L140.318 92.7578L140.44 91.1606L140.414 90.1292L139.447 88.8845L137.609 87.4266L136.04 85.7642L131.271 78.1918L128.618 70.8152L128.688 68.809L129.607 67.3685L129.858 65.4231L130.404 64.0044L136.907 56.2231L137.167 55.5485L136.733 55.0742L135.645 54.8218L134.947 54.5345L134.787 53.8426L134.189 53.0592L133.27 52.2367L133.105 51.8581H132.958L132.03 50.9572L131.245 49.6516L130.873 49.1686L130.157 48.259L129.724 47.6497L129.243 47.1144L128.77 46.3702L128.302 45.935L127.933 45.4346L127.734 44.4554L127.4 43.6503H126.724L125.259 44.3335H124.392L123.872 43.8331L123.416 43.1629L122.025 42.0401L121.969 41.409L122.086 40.6866L121.956 40.1426L121.878 39.8336L121.518 39.529L117.69 37.588L115.817 36.0779L115.232 35.029L115.163 33.4972L115.427 33.062L116.94 32.1219L117.022 31.8782V31.5997L117.118 31.3603L122.441 30.4116L123.629 29.6674L123.885 29.2757L124.11 28.7927L124.244 28.2879L124.266 27.7656L124.11 27.2956L123.243 25.4199L122.81 24.9847L121.167 24.2928L119.524 22.6912L118.821 21.6946L118.436 20.685L118.488 19.4055L119.021 18.3436L119.853 17.5385L120.824 17.0337L122.632 16.6725L124.149 15.6367L124.895 15.3973L125.202 15.3016L124.561 13.9438L123.746 12.8253L121.774 10.9888L116.927 5.12672L115.163 3.46863L114.608 3.07694L114.222 2.9812Z" fill="#22B2B5" fill-opacity="0.25" stroke="white" stroke-width="1.5"/>
<path d="M318.775 481.592L318.649 481.218L318.614 480.913L318.467 480.683L317.973 480.813L317.539 481.044L317.643 481.361L317.743 481.553V481.749L317.877 481.644L318.146 481.91L318.315 481.814H318.554L318.775 481.592ZM304.335 480.456L304.287 479.882L304.14 479.599L303.459 479.808L303.082 480.008L303.195 480.365L303.654 480.583L304.044 480.674L304.335 480.456ZM303.555 469.115L304.162 467.87L304.057 467.648L303.919 467.47L303.758 467.348L303.555 467.257L303.269 466.935L303 466.878L302.757 467.004L302.575 467.257L302.458 467.627V467.927L302.527 468.249L302.562 468.684L302.714 468.871L303.056 469.045L303.39 469.15L303.555 469.115ZM289.774 461.282L289.834 461.09L289.899 460.894L289.869 460.694L289.843 460.511L289.765 460.446L289.648 460.337L289.444 460.224L289.418 460.002V459.967V459.676L289.397 459.61L289.34 459.471L288.928 459.31L287.858 459.206L287.377 459.032L286.813 459.001L286.297 459.162L285.864 459.484L285.578 459.919L286.163 460.881L287.095 461.316H287.312L289.444 461.434L289.774 461.282ZM342.855 457.117L343.263 456.425L343.211 455.663L342.985 455.319L342.708 455.376L342.24 455.741L341.871 456.46L341.802 457.208L342.27 457.465L342.855 457.117ZM278.564 455.663L278.334 455.171L277.996 455.01L277.692 454.941H277.124L276.895 455.298L277.181 455.694L277.679 455.955L278.191 456.024L278.564 455.663ZM270.574 451.311L270.34 451.094L269.954 450.75L269.287 450.484L267.119 450.323L264.687 449.57L264.41 449.592L264.18 449.675L263.972 449.723L263.859 449.862L264.12 450.162L265.021 450.924L265.407 451.172L265.468 451.211L265.979 451.429L267.622 451.716H268.173L268.693 451.416L269.044 451.333L270.149 451.429L270.574 451.311ZM356.966 450.154L357.833 449.392L357.685 448.391L356.606 448.495L355.878 448.839L355.444 449.431L355.314 450.302L355.856 450.523L356.966 450.154ZM350.975 447.943L351.616 447.368L353.394 446.907L353.857 446.642L354.317 446.376L354.087 445.767L353.922 445.641L353.463 445.284L352.722 444.966L352.158 444.822H351.022L347.221 445.693L344.186 447.669L343.094 447.925L339.067 446.393L338.334 446.829L338.529 447.09L339.01 447.464L339.504 447.943L339.734 448.495L339.869 449.94L339.765 450.558L339.331 451.059L339.457 451.285L339.543 451.498L339.262 451.598L338.963 451.851L338.754 451.942L338.468 451.968L337.87 451.921H337.571L335.69 452.66L335.113 453.13L333.782 453.948L333.678 453.992L333.318 454.131L332.759 454.192L328.905 455.459L327.384 456.329L327.297 456.303L327.119 456.251L326.803 456.399L325.437 455.916L325.125 456.251L325.424 457.252L325.572 457.421L325.524 457.791L325.329 458.357L325.468 459.162L325.615 459.532L325.719 459.602L325.836 459.684L326.101 459.645L326.456 459.536L326.768 459.362L326.903 459.14L327.028 458.866H327.319L327.648 458.971L327.8 459.005H327.882L328.147 458.905L328.684 458.562L329.941 458.213L331.727 458.009L332.23 457.739L333.21 457.017L334.818 456.325L336.375 455.206L336.986 454.915L337.571 454.788L338.872 454.976H339.483L340.02 454.667L340.553 454.205L342.478 453.213L343.215 453.792L343.844 454.436L344.511 454.723L345.352 454.227L346.774 452.847L347.017 452.686L347.268 452.395L348.365 451.833L348.612 451.568L348.803 451.133L349.995 449.906L350.32 449.34L350.975 447.943ZM359.926 443.417L360.108 443.33L360.308 443.221L360.581 442.916L360.694 442.481L360.594 442.076V442.011L360.321 441.789L359.987 441.654L359.679 441.454L359.172 441.558L358.643 442.298L358.574 443.116L359.484 443.473L359.926 443.417ZM333.713 387.22L332.447 386.349L331.19 384.691L328.589 382.663L323.387 381.175L320.933 380.992L322.598 386.027V386.959L321.653 387.642L321.805 389.209L330.475 397.647L331.238 399.723L330.9 403.418L329.443 408.766L329.304 410.137L329.443 411.195L331.879 413.201L333.258 415.464L333.084 417.318L332.59 418.114L331.927 418.589L331.06 418.976L329.4 418.876L326.755 419.564L322.819 421.696L321.696 423.485L320.751 426.388L319.104 427.959L315.502 429.068L307.82 427.98L305.185 428.585L303.758 429.203L302.393 428.72L300.659 428.494L292.964 429.203L289.986 430.243L288.712 431.81L288.278 434.421L287.667 436.201V436.558L287.996 437.515L287.216 438.791L284.212 440.392L275.395 438.817H274.649L272.555 439.356L272.052 439.287L271.563 439.047L269.135 437.05L268.069 436.615L261.64 436.04L259.52 434.021L258.735 432.489L257.487 433.216L257.097 433.355L255.753 433.298L254.331 432.937L253.859 432.907L251.977 433.103H251.665L251.071 433.351H250.915L250.755 433.546L250.291 434.456L251.821 435.139L252.853 435.844L255.172 437.942L256.473 438.342L257.067 438.699L257.318 439.413L257.582 439.735L259.295 440.17L259.659 440.605L259.962 441.123L260.348 441.558L260.968 441.741L261.601 441.798L271.402 445.153L272.326 445.732L272.815 446.337L273.045 446.977L273.115 448.526L273.279 449.161L273.713 449.671L276.513 451.799L278.681 453.104L280.185 454.41L280.54 454.532L281.217 454.166L281.919 454.223L283.219 454.658H283.848L285.023 454.323L286.349 454.14L288.244 453.27L288.833 453.143H289.141L289.379 453.261L289.93 453.696L290.242 453.796L290.736 453.87L292.713 454.453L293.32 454.523L295.522 454.371L296.072 454.21L296.649 454.118L297.26 454.236L298.127 454.936L298.669 455.92L299.103 456.964L299.627 457.796L300.663 458.305L303.29 458.2L304.591 458.453L305.458 459.258L305.813 460.194L306.307 460.929L307.569 461.129L310.048 460.907L310.387 460.968L310.876 461.264L311.236 461.325L311.535 461.251L311.752 461.068L311.934 460.859L312.129 460.681L315.263 458.844L318.038 456.577L318.35 456.377L320.236 454.675L320.669 454.475L321.939 454.101L322.503 454.031L323.201 453.866L323.482 453.431L323.638 452.847L323.981 452.234L325.073 451.712L326.374 451.89L328.702 452.695L330.002 452.773L331.207 452.521L332.291 451.968L333.232 451.128L333.635 450.471L333.977 449.557L334.151 448.583L334.034 447.786L333.826 447.995L333.648 448.095L333.214 448.234L334.775 446.494L335.096 446.241L335.456 446.045L336.427 445.14L336.968 444.892H337.263L338.165 445.11H339.249L339.496 445.04L339.929 444.731L340.25 444.67L341.221 444.696L341.524 444.67L342.717 444.374L344.017 444.222L344.338 444.117L344.858 443.656L345.01 443.556V443.425L345.708 442.829L347.641 441.645L348.144 441.21L348.395 441.054L348.616 441.001L348.773 440.893L348.829 440.549L348.924 440.388L349.405 439.913L349.644 439.752L350.402 439.596L352.275 439.522L352.895 439.221L353.558 438.756L354.469 438.521L356.25 438.421L357.143 438.556L358.656 439.156L359.523 439.33L361.322 439.422L362.189 439.604L362.891 439.996L363.087 439.752L363.741 439.961L366.732 439.996L367.01 440.135L367.218 440.449L367.491 440.766L367.924 440.906H368.705L369.077 440.779L369.411 440.444L369.589 441.18L370.057 441.859L370.746 442.324L371.613 442.446V442.69L371.362 442.89L370.855 443.438L370.716 443.556L370.443 443.674V443.913L370.638 444.083L371.007 443.996V444.331L371.076 444.6L371.249 444.709L371.813 444.431L372.008 444.557L372.16 444.775L372.307 444.883L372.446 444.953L372.571 445.11L372.741 445.262L373.005 445.327L373.295 445.271L374.188 444.883L374.006 445.149L373.902 445.467L373.946 445.771L374.188 445.997L373.833 446.158L373.542 446.341L373.226 446.467L372.793 446.437L373.083 446.75L373.95 447.347L373.915 447.864L374.266 448.382L375.246 449.253L375.636 449.832L377.518 457.356L377.613 458.866L377.119 462.9V463.201L377.232 463.936L377.305 464.223L377.448 464.467L377.994 465.007L378.315 465.586L378.519 466.312L378.688 467.775L378.9 467.97L378.749 468.841L380.656 470.96L381.046 471.987L380.734 472.631L379.837 473.615L379.655 474.285L379.715 474.673L380.002 475.295L380.114 475.83L380.504 476.992L380.582 477.371L380.634 477.501L380.756 477.536L381.116 477.475L381.241 477.501L381.892 478.28L381.931 478.407L382.225 478.663L382.459 479.281L382.824 480.587L383.522 482.219L383.686 483.79L383.89 484.295L384.323 484.525L388.182 484.782L387.965 484.978L389.929 485.6L390.648 485.657L390.939 485.622L391.52 485.47L391.845 485.444L392.178 485.505L392.777 485.814L393.132 485.874L394.727 485.505L395.378 485.444H396.102L396.7 485.605L397.133 486.005L397.428 486.741L397.476 486.989V487.102L397.402 487.263L397.289 487.633L397.172 489.047H397.606L398.239 488.651L399.223 487.846L400.393 487.245L401.577 486.936L402.669 487.197L403.566 488.285L404.433 490.126L405.066 490.997L405.838 491.362L406.792 491.506L407.706 491.802L408.647 491.985L409.705 491.815L410.723 491.11L410.888 491.032L410.992 491.258L411.252 491.293L411.543 491.193L411.772 491.032L412.106 490.709H412.254L412.353 490.836L412.548 490.918L412.982 490.81L413.641 490.248L414.031 490.048L414.959 489.857L415.826 489.809L415.622 490.318L416.159 490.579L417.703 490.683L419.502 490.396L424.734 491.362H427.205L427.53 491.467L427.69 491.719L427.79 492.037L427.972 492.346L428.237 492.472H429.247L430.365 492.99L431.076 493.86L432.407 496.006L432.784 496.319L433.269 496.532L433.842 496.65L434.505 496.685L434.769 496.606L435.034 496.489L435.285 496.424L435.493 496.559L435.71 496.767L435.953 496.815L436.56 496.685L438.203 495.901L439.811 495.649L439.685 494.887L440.444 494.561V494.078L440.518 493.56L439.98 493.295L439.746 492.973L438.727 491.232L438.185 490.627L437.791 490.118L437.6 489.456L437.128 488.873L436.261 488.534L435.628 487.885L435.476 486.723L434.544 485.191L429.082 480.334L428.059 479.682L427.66 479.516L427.547 478.929L427.686 477.902L428.211 477.101L428.553 476.914L427.374 475.13L426.94 474.781H426.16L425.037 474.346L424.196 474.559L423.329 475.46L422.094 475.613L420.659 475.565L419.476 475.291L418.99 474.42L418.903 473.415L418.613 472.701L418.544 472.07L418.817 471.483L418.856 471.134L418.318 470.782L416.515 470.503L415.414 470.003L414.399 469.764L413.402 470.238L411.842 470.386L409.479 469.951L405.656 470.225L405.608 469.563L406.193 468.837L406.536 467.035V466.104L406.367 465.168L407.034 458.862L407.442 457.861L407.962 457.208L408.122 456.673L408.088 455.846L407.39 453.77L407.42 453.126L408.04 453.152L409.852 454.266L410.095 453.644L409.267 451.847L407.572 449.875L405.404 448.056L403.419 446.859L401.516 446.811L400.341 447.616L399.643 448.583L398.291 449.862L397.424 449.597L395.469 448.147L386.565 443.399L385.984 441.511L385.078 429.325L384.211 426.766L383.43 425.165L382.659 424.769L382.004 423.816L382.511 422.81L383.305 422.14L383.118 420.495L381.818 418.502L380.517 417.061L379.841 415.756L378.692 414.254L377.192 413.436L376.325 413.314L375.758 412.836L375.324 412.139L374.297 407.069L374.553 403.705L374.323 403.183L371.314 401.699L369.745 401.638L368.445 402.691L367.578 403.775L364.465 406.756L361.071 408.44L359.224 408.771L355.791 408.244L352.83 406.443L350.359 404.153L347.784 400.811L347.151 397.582L347.862 395.149L347.312 382.585L346.497 381.375L345.63 381.484L342.235 383.081L336.47 387.477L334.992 387.864L333.713 387.22Z" fill="#22B2B5" fill-opacity="0.15" stroke="white" stroke-width="1.5"/>
<path d="M97.749 208.237L97.2678 208.093L96.2924 208.006L91.6627 209.086V210.148L92.456 211.344L92.8895 212.215L92.4906 214.473L91.8881 215.661L87.3711 215.453L82.4639 216.71L79.1 216.436L71.8606 214.086L69.7451 212.232L67.8074 211.04L65.4795 210.509L63.156 210.339L58.821 208.555L54.3473 209.12L52.6567 209.073L52.1192 209.695L52.5223 211.031L52.2102 213.268L51.1091 216.749L50.5022 221.789L49.8477 222.342L49.9474 222.594V223.83L50.1424 224.078L50.6453 223.952L51.1178 223.63L51.9544 222.816L52.4833 222.594L53.8835 222.572L54.5034 222.411L54.3907 223.482L54.8979 224.008L55.5134 224.444L55.7129 225.214L55.3574 225.736L53.9919 226.576L53.5584 227.172L54.0526 227.608L54.9196 227.808L55.7865 227.699L56.3198 227.185L56.4585 227.103L56.6059 227.077L56.7532 227.103L56.7879 227.125L56.9006 227.185L56.9917 227.238L57.074 227.307L58.0407 228.521L58.3745 229.122L58.6043 229.779L58.6953 230.48V231.059L58.8427 231.563L59.8137 232.499L60.9625 234.136L61.8728 234.884L62.276 235.319L62.5361 235.898V236.255L62.3627 236.921L62.341 237.208L62.4667 237.53L62.8005 237.739L62.8222 238.052L62.6141 238.487L62.2153 238.975L61.4437 239.75L60.8324 240.211L60.3643 240.302L59.8831 240.267L59.2502 240.324L58.6736 240.655L58.6433 241.09L59.0421 241.438L60.3079 241.586L60.8541 241.817L61.2876 242.187L61.448 242.665L61.2616 243.253L60.8281 243.688L60.3556 244.075L60.0001 244.511L60.6114 245.89L62.2977 246.09L65.6963 245.716L68.7307 246.665L71.6091 248.044L72.4155 248.863L75.1075 250.429L75.2158 250.499L76.5423 251.574L78.428 252.723L79.6202 254.094L88.2901 261.705L89.2177 262.393L90.0847 262.854L90.9907 263.054L92.0095 262.946L92.5167 262.75L93.8171 262.014L94.229 262.045L95.8589 262.61L96.4788 262.937L96.8386 263.372L97.1681 263.903L97.6492 264.525L98.4209 265.113L98.5813 265.365L98.6246 265.766L98.5162 265.988L98.3602 266.175L98.1087 266.814L97.9874 266.945V267.115L98.1781 267.576L98.3082 267.772L99.1751 268.594L99.3052 268.786L99.4179 268.973L99.9251 269.687L100.107 269.883L100.393 270.022L100.545 270.457L101.104 270.892L101.256 271.327L101.213 271.802L101.061 272.137L100.887 272.437L100.775 272.807L100.714 273.286L100.74 273.556L100.935 273.712L101.369 273.834L101.741 274.073L101.976 274.422L102.227 274.718L102.66 274.774L103.22 275.005L103.28 275.096L104.056 274.787L107.065 272.803L108.096 271.11L107.754 268.934L107.706 267.193L109.813 264.264L112.462 258.054L112.106 257.719L111.543 256.888L106.904 247.061L103.51 242.57L102.565 241.521L102.132 241.308L101.585 241.147L101.213 240.711L100.649 239.623L99.9598 238.81L99.6433 238.666H99.2098L98.837 238.544L98.6766 238.109L98.3732 237.743L94.8272 235.963L93.6004 235.654L92.8634 235.219L92.3389 234.68V234.244L91.8317 234.005L90.4055 232.908L90.2711 232.739L90.1064 232.612L89.881 232.564L89.6946 232.599L89.5472 232.76L89.3868 232.804L89.1831 232.725L89.0877 232.564L89.0443 232.399L88.9967 232.308L87.9086 231.955L87.3884 231.72L87.0113 231.385L86.7078 230.815L86.6254 230.519L86.9592 229.91L87.0026 229.562L86.8899 229.27L86.5908 229.144L85.0172 228.204L84.4103 227.977L83.6603 227.016L82.7543 226.537L82.1041 225.379L81.6706 225.118L81.6359 224.853L82.0694 223.504L82.1518 222.986L82.6459 222.768L83.1488 222.716L83.7817 221.132L85.572 219.426L95.6638 216.567L96.236 215.757L97.8443 214.674L98.5249 213.938L98.915 213.155L99.0624 212.049L98.8067 210.339L98.1521 208.807L97.749 208.237Z" fill="#22B2B5" fill-opacity="0.25" stroke="white" stroke-width="1.5"/>
<path d="M106.623 197.331L104.638 197.057L103.801 197.283L103.246 197.653L103.164 198.436L103.428 200.33L103.259 202.288L101.859 203.015L99.7954 203.119L98.1395 203.946L97.9661 204.442L98.0354 204.786L98.2088 205.017L98.4039 205.226L98.5513 205.504L98.6076 205.909L98.521 206.562L98.5513 206.94L98.664 207.206L98.2522 207.88L97.7493 208.237L98.1481 208.785L98.8027 210.317L99.0585 212.028L98.9111 213.133L98.521 213.916L97.8404 214.652L96.2321 215.735L95.6599 216.545L85.5681 219.404L83.7778 221.11L83.1535 222.694L82.6507 222.746L82.1565 222.964L82.0741 223.482L81.6406 224.831L81.6753 225.097L82.1088 225.358L82.759 226.515L83.665 226.994L84.415 227.956L85.0219 228.182L86.5955 229.148L86.8946 229.274L87.0073 229.566L86.964 229.914L86.6302 230.523L86.7125 230.819L87.0897 231.281L87.4668 231.616L87.987 231.851L89.0751 232.203L89.1228 232.295L89.1661 232.46L89.2615 232.621L89.4652 232.699L89.6256 232.656L89.773 232.495L89.9594 232.46L90.1848 232.508L90.3496 232.634L90.4839 232.804L91.9101 233.901L92.4173 234.14V234.575L92.9419 235.115L93.6788 235.55L94.9056 235.859L98.4516 237.639L98.755 238.004L98.9154 238.44L99.2882 238.561H99.7217L100.038 238.705L100.727 239.519L101.291 240.607L101.664 241.042L102.21 241.203L102.643 241.416L103.589 242.465L106.983 246.956L111.621 256.783L112.185 257.614L112.54 257.949L114.114 255.626L118.059 245.216L119.615 244.019L126.729 243.544L128.749 242.913L131.813 242.683L134.809 243.579L136.283 245.028L138.082 245.581L144.467 246.23L151.182 250.878L155.231 251.265L157.346 250.83L157.325 250.495L157.507 249.668L157.893 248.971L158.551 248.536L160.849 247.766L162.149 246.765L162.674 242.674L164.33 240.716L168.613 239.502L169.302 239.088L169.367 238.444L169.528 237.635L172.454 231.768L172.384 230.28L172.506 228.391L173.152 227.007L172.9 226.729L171.053 225.728L170.854 224.74L170.893 223.721L170.273 223.077L169.341 222.35L168.908 221.524L168.257 221.132L167.247 221.859L166.684 222.986L166.497 223.887L165.821 224.322L164.928 223.613L163.94 222.564L161.772 221.467L160.832 220.658L160.554 219.844L160.866 218.812L161.326 217.816L161.3 216.889L160.511 215.54L159.245 213.999L157.663 213.49L156.215 214.321L154.628 214.865L153.328 215.601L152.348 218.647L151.802 219.221L149.478 220.705L148.685 220.414L145.434 220.127L143.526 219.426L142.061 218.556L141.684 217.824L141.832 216.989L142.074 216.219L143.227 213.542L143.128 212.741L142.768 211.797L142.976 210.665L143.409 209.926L135.546 206.549L133.651 206.757L132.121 206.666L131.367 206.875L129.854 208.442L128.987 208.672L127.921 208.268L121.518 207.493L109.163 199.324L108.574 198.454L107.334 197.649L106.623 197.331Z" fill="#22B2B5" fill-opacity="0.15" stroke="white" stroke-width="1.5"/>
<path d="M155.214 251.3L151.165 250.912L144.45 246.265L138.065 245.612L136.266 245.059L134.792 243.61L131.796 242.713L128.732 242.944L126.712 243.575L119.598 244.049L118.042 245.246L114.097 255.656L112.523 257.98L109.875 264.19L107.768 267.119L107.815 268.86L108.158 271.036L107.126 272.729L104.118 274.713L103.342 275.022L103.775 275.636L104.43 277.124L104.863 277.638L105.869 278.134L106.151 278.735L106.294 279.339L107.321 281.198L107.516 281.472L108.041 281.82L108.258 282.025L108.418 282.329L108.57 282.925L108.674 283.182L109.133 283.7L110.269 284.571L110.668 285.175L110.75 285.898L110.577 286.668L106.186 298.706L106.129 304.52L106.025 312.693H115.497L115.809 312.88L115.9 313.315L115.805 329.531L115.844 330.558L118.878 330.993L119.199 331.102L119.498 331.293L119.979 331.815L120.348 332.473L120.612 333.208L120.851 334.683L120.976 335.005L121.206 335.249L121.527 335.388L121.865 335.445H122.216L123.265 335.262H123.629L123.976 335.38L124.249 335.61L124.835 336.598L125.758 337.651L126.881 338.687L127.071 338.974L127.214 339.309L127.271 339.675L127.201 340.032L126.985 340.319L126.716 340.567L126.486 340.85L126.421 341.22L126.477 341.451L126.837 342.225L127.418 342.882L127.579 343.226L127.652 343.283L128.185 344.945L128.237 345.38L128.498 346.029L128.628 346.255L128.818 346.442L129.221 346.764L129.655 347.021L130.548 347.282L130.756 347.374L130.782 347.287L130.938 347.086V347.317L133.054 347.517L133.717 347.317L133.96 347.147L134.224 346.917L134.432 346.625L134.519 346.294L134.441 345.859L134.051 345.224L133.912 344.823L133.986 344.245L134.454 344.353L135.681 345.032H137.701L138.256 345.293L138.758 345.063L140.718 345.293L141.307 345.132L141.832 344.697L142.213 344.092L142.395 343.435V343.061L142.235 342.421L142.213 342.064L142.296 341.69L142.556 341.002L142.612 340.567L142.452 339.057L142.261 338.3L142.018 337.708L141.546 337.181L140.961 336.746L140.458 336.237L140.241 335.515L140.349 335.336L140.536 335.071L140.653 334.831L140.328 334.531L140.466 334.096L140.722 333.687L140.835 333.543L142.417 332.059L142.751 331.959L144.303 332.177H144.793L145.369 331.589L145.139 330.993L144.42 330.532L143.501 330.353L142.721 330.001L142.937 329.317L143.761 328.799L144.793 328.947L145.278 328.673L145.772 328.708L146.288 328.86L146.865 328.947L147.012 328.913L147.285 328.756L147.467 328.721L147.662 328.821L147.983 329.287L148.157 329.409L148.56 329.309L148.85 329.087L149.097 329.03L149.34 329.409L149.227 329.552L149.188 329.665L149.136 330.101L149.591 329.766L150.025 329.274L150.363 329.117L150.593 330.344L150.857 330.862L151.291 331.141L151.885 331.023L151.854 331.598L151.694 331.955L150.827 333.051L150.276 334.022L150.112 334.457L149.739 333.957L149.357 333.608L148.868 333.399L148.226 333.334L147.823 333.195L146.639 332.568L146.054 332.42L145.525 332.503L144.576 332.825L143.965 332.86L142.786 332.66L142.3 332.79L141.992 333.334L142.92 333.582L143.679 333.974L144.181 334.648L144.377 335.728L144.767 336.106L146.674 337.225L147.342 337.46L147.844 337.503L148.152 337.847L148.395 338.282L148.915 338.609L149.409 338.539L149.843 338.143L150.142 337.582L150.307 337.007L150.658 337.238V337.455L150.541 337.673L150.489 337.926V338.426V338.609L150.615 338.805L151.013 339.087L151.096 339.192L151.061 340.576L151.334 340.863L152.08 340.92L152.674 340.798L153.753 340.336L154.351 340.236L154.594 340.306L155.006 340.619L155.327 340.689L155.673 340.654L156.302 340.498L156.61 340.458L157.23 340.511L157.498 340.572L157.785 340.689L158.092 340.88L158.205 341.02L158.274 341.203L158.482 341.503L158.712 342.082V343.592L158.782 344.14L159.597 345.333L160.52 345.537L161.565 345.102L170.612 339.292L171.665 338.922L172.74 338.752L173.768 338.879L174.535 339.175L176.39 338.248L179.355 337.747L181.02 338.557L185.463 338.796L184.982 333.521L184.445 331.297L183.526 330.249L183.326 328.508L184.991 324.569L184.497 322.794L182.858 321.588L180.114 320.113L177.873 317.854L176.702 316.353L171.791 317.01L171.596 316.183L171.882 315.078L172.012 314.072L172.159 313.563L172.068 312.197L170.768 307.41L170.742 305.425L171.219 304.333L171.947 303.354L172.927 302.609L175.15 301.665L178.618 298.553L180.53 295.973L181.562 293.971L183.131 291.995L183.213 290.42L182.372 288.531L179.919 285.876L179.364 284.888L177.929 283.583L177.062 282.168L176.195 280.127L175.415 277.277L175.025 276.371L174.552 275.893L173.187 275.458L172.753 274.974L172.021 274.465L171.327 273.547L170.421 271.249L166.086 264.334L165.613 262.258L165.509 261.248L166.277 258.689L166.892 257.732L165.696 256.104L162.813 254.999L160.299 255.164L158.725 254.316L157.329 250.834L155.214 251.3Z" fill="#22B2B5" fill-opacity="0.15" stroke="white" stroke-width="1.5"/>
<path d="M210.869 306.974L211.164 305.804L211.242 303.193L208.606 294.423L207.964 290.563L208.133 288.74L209.113 288.035L210.336 287.504L210.271 286.459L209.404 285.349L208.836 284.305L208.957 283.252L210.11 282.455L211.02 280.649L210.492 277.098L208.983 274.335L205.632 271.797L204.115 270.248L200.452 267.372L200.166 264.686L200.331 262.197L199.698 261.205L199.455 260.204L199.021 259.708L198.258 259.512L197.977 258.672L197.695 257.114L196.568 256.13L195.319 256.344L194.686 257.044L193.494 257.449L189.706 257.571L188.578 257.771L185.362 259.877L184.061 260.165L183.194 259.864L181.781 260.178L179.9 259.947L178.144 258.48L176.354 257.514L175.053 257.788L174.186 258.232L173.146 258.415L171.182 258.158L165.508 261.24L165.612 262.249L166.084 264.325L170.419 271.24L171.325 273.538L172.019 274.457L172.739 274.979L173.172 275.462L174.538 275.897L175.01 276.376L175.4 277.281L176.18 280.131L177.047 282.173L177.914 283.587L179.349 284.893L179.904 285.88L182.358 288.535L183.199 290.424L183.116 291.999L181.556 294.001L180.524 296.003L182.566 297.261L187.625 299.302L189.142 299.219L190.009 299.332L200.738 308.907H201.718L205.025 309.342L206.586 308.524L208.016 307.262L209.889 306.905L210.869 306.974Z" fill="#22B2B5" fill-opacity="0.15" stroke="white" stroke-width="1.5"/>
<path d="M383.635 223.356L377.93 222.672L376.582 220.523L374.783 210.483L375.022 204.581L378.65 193.588L380.614 190.028L392.036 181.899L394.828 179.144L395.218 176.885L394.23 174.662L385.824 168.173L382.621 167.324L375.329 169.2L363.881 174.675L352.103 177.769L341.742 195.32L338.569 196.961L331.2 196.796L328.533 197.305L328.026 197.536V197.627L328.351 221.232L327.588 223.691L325.126 227.999L323.47 229.161L321.229 229.401L318.364 230.946L316.807 232.852L315.507 238.649L314.566 241.221L313.457 243.323L311.861 245.277L308.827 247.017L278.326 257.593L269.197 255.486L267.09 255.556L264.311 256.648L262.577 257.758L261.32 258.829L259.456 259.899L257.38 260.513L256.213 261.279L255.992 262.419L256.82 272.951L256.565 275.127L255.351 279.914L254.818 284.074L254.51 284.919L254.596 287.282L255.858 292.282L263.188 295.115L267.532 299.141L271.23 303.663L277.966 320.77L282.735 329.378L287.33 335.036L288.587 337.277L289.614 344.601L290.438 346.603L294.916 349.994L300.768 352.979L302.043 352.413L302.329 352.169L305.237 351.813L306.143 351.155L306.117 350.211L305.719 348.906L305.415 347.004L305.775 336.15L304.843 335.506L303.915 334.366L303.235 331.019L301.527 326.515L299.918 323.468L299.858 321.771L300.499 319.317L301.83 316.771L304.366 313.938L320.566 311.048L324.259 311.191L326.617 311.679L332.058 310.93L336.943 308.754L337.377 306.404L337.745 295.742L339.046 292.992L354.357 284.866L356.39 282.69L362.385 279.287L363.686 277.847L364.314 276.885L367.99 277.546L398.925 290.92L399.328 290.258L400.841 286.342L403.801 281.72L404.859 278.739L408.696 273.569L409.172 271.972L409.437 270.296L410.091 268.386L410.152 266.505L408.995 264.582L408.128 262.667L408.08 261.623L407.213 260.656L406.779 259.869L406.571 259.107L407.057 257.876L407.837 256.605L408.076 255.547L407.937 252.906L407.178 252.366L404.85 248.689L402.397 247.148L400.533 246.308L399.844 245.764L397.399 244.35L395.517 240.046L393.35 225.414L392.236 223.216L391 221.637L383.635 223.356Z" fill="#22B2B5" fill-opacity="0.15" stroke="white" stroke-width="1.5"/>
<path d="M233.859 147.214L231.579 147.083L230.165 146.57L229.298 146.056L228.267 144.859L226.602 141.704L223.654 138.51L219.753 136.965L215.327 136.586L212.214 134.741L212.119 136.251V138.27L210.489 139.284L208.17 138.993L205.833 139.859L204.099 141.878L203.969 144.211L203.614 145.952L201.056 146.095L200.241 148.271L198.733 150.138L196.873 151.291L196.114 153.054L197.449 154.734L198.186 156.179V158.664L195.689 166.776V166.863L203.969 166.954L210.905 169.061L227.326 178.9L227.447 177.381L228.314 174.548L229.793 172.251L230.152 170.075L228.852 167.69L225.596 163.338L225.375 161.828L225.557 160.209L226.099 158.076L226.489 154.804L226.971 154.294L227.508 154.538L227.855 154.895L228.475 155.112L230.209 155.204L231.804 156.601L237.054 159.826L239.165 160.561L241.358 160.609L247.861 162.502L250.193 162.594L253.474 161.51L256.336 159.974L260.918 155.77L261.845 152.575L261.468 148.989L260.558 144.985L257.957 143.184L256.713 142.897L255.785 143.458L254.259 143.658L252.066 143.223L248.762 141.426L246.161 140.943L244.111 140.072L242.195 139.828L239.555 141.926L235.844 146.387L233.859 147.214Z" fill="#22B2B5" stroke="white" stroke-width="1.5"/>
<path d="M348.621 97.3229L346.575 95.8694L342.214 90.0291L341.022 91.0169L335.66 99.3292L333.28 104.66L332.712 108.616L331.75 111.136L330.289 111.824L319.989 110.405L317.535 110.697L312.494 113.604L307.604 117.459L305.827 119.4L301.752 121.333L299.745 121.768L297.495 121.407L291.859 121.502L288.955 122.373L286.562 123.792L284.395 125.968L283.376 127.965L282.739 130.141L282.275 133.031L281.143 134.336L278.187 136.982L277.519 137.962L277.164 138.867L276.492 139.859L275.243 140.977L273.202 142.083L270.995 142.801L269.552 143.005L268.598 142.47L267.102 142.984L265.277 144.046L263.903 144.429L260.986 144.751L260.552 144.938L261.463 148.942L261.84 152.528L260.912 155.722L256.33 159.926L253.469 161.462L250.187 162.546L247.855 162.454L241.353 160.561L239.159 160.513L237.048 159.778L231.799 156.553L230.203 155.156L228.469 155.065L227.849 154.847L227.503 154.49L226.965 154.247L226.484 154.756L226.094 158.028L225.552 160.161L225.37 161.78L225.591 163.29L228.846 167.642L230.147 170.027L229.787 172.203L228.309 174.501L227.442 177.334L227.32 178.853L227.711 180.258L227.637 183.131L226.857 186.216L225.587 189.206L224.633 190.59L230.208 193.636L233.025 194.102L240.945 193.584L242.909 193.889L255.181 197.958L256.681 198.197L325.477 196.121L327.059 196.643L327.761 197.253L328.026 197.605V197.514L328.533 197.283L331.182 196.787L338.551 196.952L341.724 195.312L352.085 177.76L356.719 171.998L360.438 168.578L363.711 166.619L369.78 164.313L370.647 163.621L371.874 160.761L376.933 152.088L377.366 149.599L375.476 147.423L368.653 141.796L367.864 139.798L366.932 135.468L366.39 128.74L366.824 124.823L367.985 122.586L368.766 119.222L368.055 116.389L366.884 115.684L365.965 115.649L365.402 115.81L361.024 116.567L359.589 116.015L356.845 115.54L355.215 115.001L351.92 112.167L348.509 108.307L347.967 107.167L348.071 106.44L348.613 104.264L348.76 101.81L348.621 100.852L348.43 100.461L348.244 100.173L348.426 99.6425L349.172 99.042L350.849 98.5371L351.153 97.7059L349.753 97.1227L348.621 97.3229Z" fill="#22B2B5" fill-opacity="0.15" stroke="white" stroke-width="1.5"/>
<path d="M279.895 109.548H279.77L278.595 109.017L277.897 108.09L278.122 108.064L278.699 107.868L277.75 107.911L277.347 107.776L277.125 107.372H278.599L280.286 107.594L280.719 107.502L281.512 107.189L281.946 107.128L282.713 107.363L283.147 107.432L283.507 107.245L284.807 106.841L286.853 106.58L288.492 106.005L288.552 104.63L287.148 105.827L285.076 106.323L273.731 106.971L272.431 107.189L262.868 109.365L258.099 110.84L253.162 112.32L248.281 113.312L243.148 114.296L238.189 115.527L233.451 117.268L228.119 117.977L222.982 116.485L217.654 115.518L212.517 114.013L204.472 112.411L202.053 111.31L197.904 108.342L193.352 105.853L192.919 105.483L192.052 104.556L191.649 104.373L191.051 104.234L189.702 103.302V103.424L189.421 104.347L188.441 105.718L186.937 106.519L185.762 107.654L185.129 110.649L183.365 113.83L181.869 114.8L189.551 121.328L191.146 122.199L195.815 125.78L196.148 126.76L196.174 127.469L200.943 128.422L202.781 129.157L203.305 129.919L204.398 130.933L205.612 131.464L210.332 132.522L212.205 134.737L215.318 136.582L219.744 136.961L223.645 138.505L226.593 141.7L228.257 144.855L229.289 146.052L230.156 146.565L231.569 147.079L233.85 147.209L235.835 146.4L239.572 141.848L242.212 139.75L244.128 139.994L246.178 140.864L248.779 141.347L252.082 143.145L254.276 143.58L255.802 143.38L256.729 142.818L257.974 143.106L260.575 144.907L261.008 144.72L263.926 144.398L265.3 144.015L267.125 142.953L268.62 142.44L269.552 142.966L270.996 142.762L273.202 142.044L275.244 140.938L276.493 139.859L277.173 138.902L277.529 137.996L278.196 137.017L281.153 134.371L282.284 133.066L282.748 130.176L283.385 128L284.404 126.002L286.571 123.826L288.964 122.408L291.869 121.537L290.698 119.74L287.664 116.572L281.261 112.664L280.26 110.923L279.93 110.026L279.895 109.556V109.548Z" fill="#22B2B5" fill-opacity="0.15" stroke="white" stroke-width="1.5"/>
<path d="M345.417 64.0043L344.984 63.9825L344.581 63.8519L343.792 63.4167L343.311 63.2644H341.841L341.408 63.1251L340.289 62.4637L338.499 62.0676H337.632L331.94 63.2644L330.106 63.3427L329.404 63.63L327.267 65.3011L326.669 65.6101L326.075 66.0975L325.745 66.1411L324.445 66.5763L323.816 66.9331L323.561 67.5163L323.205 67.6555L321.54 67.9689L320.981 68.1647L320.73 68.4389L320.418 69.1091L320.21 69.3876L319.898 69.5095L319.49 69.5791L319.143 69.7749L318.992 70.2711L318.766 70.654L317.422 72.1642L313.087 75.1714L312.22 76.1158L311.843 76.725L311.683 77.3038L311.557 78.0306L311.085 79.1665L311.111 79.9324L311.215 80.137L311.557 80.446L311.683 80.681L311.722 80.9421L311.683 81.8125L311.6 82.3347L311.202 83.253L311.111 83.81L310.981 84.0711L310.248 84.6848L308.882 85.5943L308.518 85.9381L307.95 86.1688L307.239 86.9347L306.806 87.1393H306.173L304.417 86.7519L303.763 86.8564L298.886 89.7026L297.854 90.0464H297.221L296.562 89.955L295.925 89.9898L295.396 90.3467L294.859 90.8645L294.339 91.0865L293.766 91.117L285.903 90.425L286.176 93.5062L286.306 94.0241L287.173 96.3959L287.823 99.464L288.283 100.796L288.963 101.871L288.309 103.102L288.226 103.633L288.768 103.851L289.202 104.099L289.362 104.717V108.46L289.167 109.06L288.82 109.347L285.209 110.344L284.724 110.17L284.269 109.913L279.934 109.521L279.968 109.991L280.298 110.888L281.299 112.629L287.667 116.502L290.702 119.67L291.872 121.468L297.507 121.372L299.757 121.733L301.764 121.298L305.839 119.366L307.617 117.425L312.506 113.569L317.535 110.701L319.989 110.409L330.288 111.828L331.749 111.14L332.707 108.638L333.275 104.682L335.659 99.3509L341.022 91.0386L342.214 90.0507L343.081 89.1803L345.192 85.4246L347.286 84.5542L348.153 83.7404L349.02 83.3444L349.787 83.2225L353.164 82.0475L354.755 79.8323L354.217 77.6041L353.043 76.6946L351.681 76.0157L350.702 74.845L350.637 73.1825L351.222 70.8194L351.252 69.949L350.91 68.4041L350.832 67.0724L351.023 66.0323L350.827 63.4603L350.684 63.395L349.536 63.2644L345.417 64.0043Z" fill="#22B2B5" fill-opacity="0.25" stroke="white" stroke-width="1.5"/>
<path d="M243.812 295.15L237.387 293.722L236.043 292.504L235.77 289.366L235.337 288.444L234.843 288.365L230.915 290.541L230.352 291.307L229.532 291.681L225.631 294.323L223.463 294.632L220.663 293.958L220.559 294.967L221.235 296.56L222.102 297.47L223.238 297.905L224.504 298.148L226.164 299.419L227.001 301.7L226.303 304.015L225.774 307.457L223.329 313.55L223.108 316.492L223.398 318.494V319.578L222.592 319.843L220.399 320.178L221.266 324.382V325.984L221.105 326.319L220.364 327.059L218.951 327.898L217.351 328.334L214.291 327.537L213.202 326.902L212.561 326.075L211.824 325.923L208.521 324.299L206.176 323.712L205.742 324.217L206.223 327.05L207.134 329.604L207.199 330.366L206.8 331.084L207.008 331.82L207.719 333.003L207.684 334.744L207.073 336.028L199.383 340.554L198.156 340.741L193.322 340.454L190.418 341.168V342.965L191.194 345.385L192.642 346.838L194.376 350.442L196.019 351.068L202.391 351.551L206.349 352.831L208.278 355.007L209.826 358.58L211.902 361.809L213.762 363.767L216.059 364.638L218.608 366.992L231.552 391.489L232.22 394.462L236.442 406.469L237.166 407.657L238.441 408.166L239.399 408.74L241.566 411.291L245.468 420.09L249.269 424.799L252.963 428.281L258.724 432.45L259.509 433.982L261.628 436.001L268.057 436.576L269.123 437.011L271.551 439.008L272.041 439.248L272.544 439.317L274.637 438.778H275.383L284.2 440.353L287.205 438.752L287.985 437.476L287.655 436.519V436.162L288.267 434.382L288.7 431.771L289.975 430.204L292.953 429.164L300.643 428.455L302.377 428.681L303.742 429.164L305.169 428.546L307.804 427.941L315.486 429.029L319.088 427.92L320.753 426.331L321.698 423.428L322.821 421.64L326.757 419.507L329.401 418.82L331.061 418.92L331.928 418.532L332.592 418.058L333.086 417.262L333.259 415.408L331.881 413.145L329.444 411.138L329.306 410.081L329.444 408.71L330.901 403.361L331.239 399.667L330.476 397.591L321.806 389.152L321.654 387.586L322.599 386.902V385.971L320.948 380.958L315.122 366.413L313.448 365.691L306.838 365.103L305.537 364.268L304.852 363.571L304.237 362.453L303.907 361.178L301.562 356.291L300.782 353.653V352.996L294.929 350.011L290.451 346.621L289.628 344.619L288.6 337.294L287.343 335.053L282.748 329.396L277.98 320.787L271.243 303.688L267.533 299.141L263.172 295.106L255.841 292.273H255.785L245.949 295.133L243.812 295.15Z" fill="#22B2B5" fill-opacity="0.25" stroke="white" stroke-width="1.5"/>
<path d="M233.047 194.085L230.23 193.619L224.655 190.573L214.936 193.114L212.708 193.001L206.478 193.723L203.734 194.924L202.651 195.999L202.312 197.018L201.445 203.894L202.048 205.404L202.867 205.839L202.52 207.924L199.763 214.643L199 216.018H197.353L195.533 216.597L193.916 217.977L192.112 219.095L180.1 222.277L175.522 225.01L173.134 227.003L172.488 228.387L172.367 230.275L172.436 231.764L169.527 237.661L169.367 238.47L169.302 239.114L168.612 239.528L164.33 240.742L162.674 242.7L162.149 246.791L160.849 247.792L158.551 248.562L157.892 248.998L157.506 249.694L157.324 250.521L157.346 250.856L158.742 254.337L160.294 255.177L162.808 255.012L165.691 256.117L166.887 257.745L166.272 258.702L165.504 261.261L171.153 258.167L173.116 258.424L174.187 258.232L175.085 257.797L176.385 257.523L178.154 258.498L179.909 259.965L181.791 260.195L183.204 259.882L184.071 260.182L185.371 259.895L188.588 257.789L189.715 257.588L193.504 257.466L194.696 257.062L195.329 256.361L196.577 256.148L197.704 257.131L197.986 258.689L198.268 259.529L199.031 259.725L199.464 260.221L199.707 261.222L200.34 262.214L200.175 264.704L200.461 267.389L204.124 270.248L205.642 271.798L208.993 274.335L210.497 277.09L211.026 280.641L210.115 282.447L208.962 283.243L208.841 284.296L209.409 285.341L210.276 286.451L210.341 287.495L209.118 288.026L208.139 288.731L207.97 290.554L208.611 294.415L211.247 303.184L211.169 305.795L210.874 306.966L211.078 309.224L212.677 313.363L215.777 316.692L219.813 319.608L220.398 320.187L222.591 319.852L223.398 319.586V318.503L223.107 316.501L223.328 313.559L225.773 307.466L226.358 304.011L227.056 301.695L226.207 299.406L224.546 298.136L223.281 297.892L222.145 297.457L221.278 296.547L220.571 294.954L220.675 293.945L223.476 294.619L225.643 294.31L229.545 291.669L230.364 291.294L230.923 290.533L234.851 288.357L235.345 288.435L235.778 289.358L236.051 292.495L237.395 293.714L243.82 295.141H245.957L255.793 292.282H255.849L254.588 287.282L254.501 284.919L254.809 284.074L255.359 279.949L256.573 275.162L256.829 272.986L256.001 262.454L256.222 261.314L257.366 260.543L259.443 259.93L261.307 258.859L262.581 257.789L264.315 256.679L267.094 255.586L269.201 255.517L278.33 257.623L308.831 247.048L311.865 245.307L313.461 243.353L314.57 241.251L315.507 238.649L316.807 232.856L318.35 230.928L321.216 229.383L323.457 229.144L325.113 227.982L327.575 223.674L328.338 221.215L328.013 197.61L327.749 197.257L327.046 196.648L325.464 196.126L256.668 198.201L255.169 197.962L242.896 193.893L240.933 193.588L233.047 194.085Z" fill="#22B2B5" fill-opacity="0.15" stroke="white" stroke-width="1.5"/>
<path d="M182.502 372.432L182.688 371.927L182.606 371.353L182.74 370.778L182.424 370.6L181.903 370.361L181.591 370.226L181.253 370.439L181.465 370.831L181.643 371.479L181.929 372.214L182.215 372.471L182.502 372.432ZM211.901 361.809L209.868 358.575L208.321 355.002L206.391 352.826L202.434 351.547L196.061 351.064L194.418 350.437L192.684 346.834L191.236 345.38L190.461 342.961V341.25L189.962 340.772L188.883 339.988L185.458 338.783L181.015 338.543L179.389 337.734L176.424 338.234L174.547 339.179L174.785 339.274L175.219 339.57L175.392 339.919L175.548 340.471L175.93 341.15L176.363 341.755L176.771 342.077L176.602 342.948L177.265 344.836L176.948 345.968L177.339 346.164L177.508 346.403L177.404 346.599L176.948 346.651L177.057 347.004L177.083 347.617L177.165 348.022L177.265 348.17L178.383 349.336L179.575 350.072L180.122 350.546L180.811 351.569L182.111 353.98L182.883 355.098L183.663 355.969L184.097 356.604L184.279 357.27L184.543 357.614L186.243 358.306L187.183 359.254L187.643 359.898L187.838 360.473L188.089 360.908L189.607 362.175L190.422 363.419L190.591 363.78V362.788L191.024 363.006L191.579 363.776L191.956 364.459L192.186 365.369L192.333 366.674V367.98L192.125 368.794L192.472 369.429L192.654 369.634L192.931 369.725L192.862 369.951L192.736 371.309L192.303 370.835L192.038 371.079L191.852 371.631L191.648 372.067L191.393 372.467L191.315 372.872L191.362 373.672L191.622 374.599L192.255 375.165L193.057 375.261L193.82 374.826L194.345 374.726L196.594 374.586L197.284 374.704L197.388 374.887L197.453 375.169L197.487 375.726L197.592 375.874L197.826 375.796L198.09 375.657L198.268 375.613L198.619 375.914L198.814 376.257L199.052 377.215L199.59 377.076L199.867 377.559L199.937 378.32L199.841 379.043L199.646 379.391L199.065 379.917L198.857 380.152L198.814 380.522L198.948 380.797L198.983 381.036L198.675 381.301L198.398 380.753L197.925 380.152L197.379 379.652L196.824 379.456L196.222 379.813L196.118 380.631L196.287 381.541L196.521 382.172L197.882 383.913L198.099 384.561L198.341 384.909L198.918 385.066L200.08 385.135L201.302 385.423L202.226 386.001L202.967 386.872L203.613 388.082L203.977 389.509L204.003 393.709L204.241 394.736L206.001 399.123L206.218 399.458L207.172 400.472L208.19 402.06L208.546 402.495L209.547 403.414L210.141 404.384L210.18 405.255L209.547 406.995L209.686 407.652L210.284 408.275L210.778 408.749L211.867 410.533L212.3 411.722L212.872 412.54L213.436 414.498L214.03 414.45L214.251 413.532L214.94 413.967L215.603 415.086L216.236 415.773L217.472 416.152L218.369 416.274L218.521 416.435L218.62 416.683L218.655 416.996L218.802 417.205L219.136 417.288L221.629 417.823L222.765 417.997L224.568 417.662L225.673 417.397L226.705 417.318L227.251 417.662L227.711 417.806L229.709 417.562L231.079 417.749L232.271 418.249L233.329 418.968L236.728 422.149L237.816 422.693L242.948 423.833L244.006 424.268L244.955 425.021L247.123 427.267L247.326 427.602L247.786 428.672L248.016 429.055L248.449 429.421L249.62 429.856L250.079 430.257L250.339 431.018L249.984 431.34L249.355 431.41H248.818L248.215 431.466L247.734 431.684L247.461 432.119L247.509 432.789L248.102 433.42L250.331 434.413L250.794 433.503L250.955 433.307H251.081L251.674 433.059H251.987L253.868 432.863L254.34 432.894L255.762 433.255L257.106 433.312L257.496 433.172L258.745 432.446L252.984 428.276L249.29 424.795L245.488 420.086L241.587 411.286L239.42 408.736L238.462 408.162L237.187 407.652L236.463 406.464L232.206 394.449L231.539 391.476L218.594 366.979L216.045 364.625L213.748 363.754L211.901 361.809Z" fill="#22B2B5" fill-opacity="0.15" stroke="white" stroke-width="1.5"/>
<path d="M187.626 299.302L182.567 297.261L180.525 296.003L178.613 298.584L175.145 301.695L172.917 302.622L171.938 303.366L171.209 304.363L170.732 305.455L170.758 307.44L172.059 312.227L172.15 313.594L172.003 314.103L171.873 315.108L171.586 316.213L171.781 317.04L176.693 316.383L177.863 317.885L180.113 320.13L182.857 321.606L184.487 322.794L184.981 324.569L183.317 328.508L183.516 330.249L184.435 331.297L184.981 333.521L185.458 338.783L188.831 339.997L189.91 340.78L190.409 341.259V341.172L193.313 340.458L198.147 340.745L199.373 340.558L207.064 336.032L207.675 334.748L207.71 333.008L206.999 331.824L206.791 331.088L207.189 330.37L207.133 329.604L206.236 327.046L205.755 324.212L206.188 323.708L208.533 324.295L211.836 325.918L212.573 326.071L213.215 326.898L214.286 327.555L217.346 328.351L218.946 327.916L220.359 327.076L221.1 326.336L221.261 326.001V324.399L220.394 320.196L219.808 319.617L215.773 316.701L212.673 313.372L211.074 309.233L210.87 306.974L209.89 306.905L208.017 307.261L206.587 308.524L205.026 309.342L201.719 308.907H200.739L190.01 299.332L189.143 299.219L187.626 299.302Z" fill="#22B2B5" fill-opacity="0.15" stroke="white" stroke-width="1.5"/>
</g>
<defs>
<clipPath id="clip0_581_2232">
<rect width="558" height="508" fill="white"/>
</clipPath>
</defs>
</svg>
