<svg width="102" height="102" viewBox="0 0 102 102" fill="none" xmlns="http://www.w3.org/2000/svg">
<path d="M51 0C22.8362 0 0 22.8362 0 51C0 79.1638 22.8362 102 51 102C79.1638 102 102 79.1638 102 51C102 22.8362 79.1638 0 51 0ZM67.4042 51.7855L42.5417 69.8746C42.4054 69.9725 42.2448 70.031 42.0774 70.0436C41.91 70.0561 41.7424 70.0223 41.593 69.9459C41.4436 69.8694 41.3182 69.7532 41.2305 69.6101C41.1428 69.467 41.0963 69.3024 41.096 69.1346V32.9792C41.0954 32.8111 41.1415 32.646 41.229 32.5024C41.3165 32.3588 41.442 32.2422 41.5918 32.1656C41.7415 32.0889 41.9095 32.0553 42.0772 32.0683C42.2448 32.0813 42.4056 32.1405 42.5417 32.2393L67.4042 50.317C67.5217 50.4 67.6175 50.5101 67.6836 50.6378C67.7498 50.7656 67.7843 50.9074 67.7843 51.0512C67.7843 51.1951 67.7498 51.3369 67.6836 51.4646C67.6175 51.5924 67.5217 51.7024 67.4042 51.7855V51.7855Z" fill="black"/>
</svg>
