<svg width="354" height="183" viewBox="0 0 354 183" fill="none" xmlns="http://www.w3.org/2000/svg">
<mask id="mask0_364_191" style="mask-type:alpha" maskUnits="userSpaceOnUse" x="0" y="0" width="354" height="183">
<rect x="354" width="183" height="354" rx="10" transform="rotate(90 354 0)" fill="url(#paint0_linear_364_191)"/>
</mask>
<g mask="url(#mask0_364_191)">
<path opacity="0.2" d="M313.097 59.8918C313.894 59.5181 315.212 58.9583 315.605 58.1753C316.25 56.8906 315.17 55.5228 314.605 54.3694C313.559 52.2346 312.889 49.827 314.566 47.8005C316.501 45.4612 320.161 44.7634 322.151 42.4317C324.639 39.5181 325.099 35.7319 326.772 32.4937C328.191 29.7482 330.542 27.4809 331.979 24.7327C334.534 19.8425 335.766 12.1874 335.2 6.82557C334.699 2.0799 333.317 -2.7144 331.544 -7.21455C330.463 -9.96063 328.842 -12.4754 328.256 -15.3644C326.859 -22.25 331.448 -30.3923 325.306 -36.1456C320.045 -41.0736 311.479 -41.2734 304.756 -38.797C300.835 -37.3528 297.106 -33.8979 292.703 -36.0219C289.105 -37.7573 287.969 -41.5911 286.387 -44.6333C283.501 -50.1837 278.508 -54.9852 270.853 -54.4753M283.559 -24.923C285.114 -25.3778 286.879 -26.0818 288.533 -26.0142C292.794 -25.8402 295.774 -21.8836 296.885 -18.4869C297.377 -16.98 298.784 -12.1158 297.844 -10.6695C297.001 -9.37021 295.16 -8.82228 293.681 -8.39672C292.858 -8.15978 291.69 -7.67227 290.816 -7.82769C289.606 -8.04276 289.445 -9.49657 289.181 -10.3893C288.605 -12.3393 287.499 -14.1082 286.047 -15.617C284.244 -17.4899 281.859 -18.8205 279.229 -19.4298C277.338 -19.8678 274.497 -19.7041 273.442 -21.5828C272.617 -23.0515 274.415 -25.348 275.149 -26.5535C276.932 -29.4786 278.593 -32.8305 278.093 -36.2601C277.626 -39.4631 276.232 -41.8019 273.509 -43.8034C272.232 -44.742 270.168 -45.3384 268.691 -44.4117C267.097 -43.4118 267.259 -41.4749 267.666 -39.9535C268.209 -37.9228 268.822 -35.4731 268.348 -33.3835C267.144 -28.0662 259.41 -23.3573 261.511 -17.5125C262.683 -14.2517 268.338 -13.461 271.145 -11.6667C276.484 -8.2534 277.942 -2.01966 277.185 3.61505M288.178 68.2132C291.88 66.0832 297.628 65.2373 300.358 61.9952C305.121 56.3383 299.077 46.5917 291.843 46.1777C286.438 45.8686 281.738 47.6975 276.733 49.1759C274.541 49.8231 270.678 50.7698 268.453 49.7332C265.3 48.2642 264.819 45.5478 263.326 42.8831C261.697 39.9749 259.431 37.3666 257.724 34.4809C254.345 28.7683 251.458 22.0913 255.242 15.9102C257.557 12.1297 261.447 9.32112 264.062 5.71001C266.313 2.59926 267.993 -2.75935 263.55 -5.01424C257.142 -8.26694 256.076 -1.01643 253.726 1.99504C251.551 4.78348 248.196 6.45924 245.832 9.06718C243.225 11.9433 241.933 21.3959 235.194 16.9009C233.688 15.8963 232.443 14.718 230.843 13.7954C228.86 12.6509 226.657 11.3027 225.519 9.35431C223.913 6.60379 225.738 5.55261 228.699 4.89072C235.126 3.45389 241.547 4.38439 245.578 -1.60046C249.161 -6.91915 247.368 -12.925 248.695 -18.6514C249.836 -23.5689 253.626 -27.2384 255.139 -31.9448M287.606 68.5328C287.004 68.9418 286.412 69.4174 285.943 69.9564C282.895 73.4559 288.217 76.1723 290.974 77.3082C291.588 77.5615 292.236 77.7667 292.87 77.9761C293.708 78.2531 294.531 78.5858 295.317 78.9702C296.414 79.5068 297.558 80.1095 298.494 80.8667C301.073 82.9512 301.69 86.2603 298.868 88.3958C297.464 89.4574 295.589 90.005 293.815 90.2528C290.147 90.7637 285.094 90.057 282.365 87.5636C280.771 86.1089 279.918 84.1371 278.772 82.3964C277.275 80.1236 275.476 78.0401 273.31 76.2728C271.76 75.0079 269.969 73.9117 268.065 73.1564C265.723 72.2277 263.261 71.6299 261.296 70.0632C257.855 67.3196 255.315 61.9787 249.877 63.064C245.886 63.8607 247.163 69.8558 248.251 72.1902C248.564 72.8608 248.936 73.5129 249.397 74.1084C253.233 79.0661 261.247 78.4117 266.437 81.69C268.574 83.04 271.345 86.1058 268.679 88.2489C262.848 92.9343 255.72 86.8997 250.275 85.0794C246.722 83.8924 242.112 84.6174 239.837 81.2769C239.382 80.608 239.035 79.8845 238.778 79.1323C237.917 76.6055 237.765 73.9333 238.756 71.4188C239.606 69.2603 241.455 67.2546 241.237 64.8253M287.606 -84.4347C287.004 -84.0257 286.412 -83.5501 285.943 -83.0111C282.895 -79.5116 288.217 -76.7952 290.974 -75.6593C291.588 -75.406 292.236 -75.2009 292.87 -74.9915C293.708 -74.7143 294.531 -74.3817 295.317 -73.9972C296.414 -73.4607 297.558 -72.858 298.494 -72.1007C301.073 -70.0163 301.69 -66.7065 298.868 -64.572C297.465 -63.5105 295.589 -62.9618 293.815 -62.7145C290.147 -62.2036 285.094 -62.911 282.365 -65.4032C280.771 -66.8583 279.918 -68.8308 278.772 -70.5711C277.275 -72.8439 275.476 -74.9274 273.31 -76.6946C271.76 -77.9595 269.969 -79.0558 268.065 -79.8112C265.723 -80.7398 263.261 -81.3376 261.296 -82.9043C257.855 -85.6479 255.315 -90.9888 249.877 -89.9035C245.886 -89.1068 247.163 -83.1117 248.251 -80.7773C248.564 -80.1067 248.936 -79.4546 249.397 -78.8591C253.233 -73.9014 261.247 -74.5558 266.437 -71.2776C268.574 -69.9275 271.345 -66.861 268.679 -64.7184C262.848 -60.033 255.72 -66.0682 250.275 -67.8877C246.722 -69.0751 242.112 -68.3503 239.837 -71.6906C239.382 -72.3594 239.035 -73.083 238.778 -73.8351C237.917 -76.362 237.765 -79.0342 238.756 -81.5488C239.606 -83.7072 241.455 -85.7129 241.237 -88.1422M291.121 57.1521C284.017 55.8673 279.752 61.0715 273.018 61.1603C264.869 61.2678 254.805 53.1998 248.471 49.0157M253.708 43.1801C248.737 39.66 250.22 36.4168 246.178 32.2276C244.212 30.1901 240.502 26.5866 237.275 27.1873C234.281 27.7444 231.093 31.0856 231.526 33.3596C232.415 38.0376 240.964 45.6423 238.131 49.9674C236.174 52.9558 232.676 54.6742 230.797 57.6848C228.837 60.8263 229.767 64.1646 228.666 67.4781C227.75 70.2352 225.389 72.1988 224.335 74.8584C222.682 79.0271 224.896 84.7949 220.735 87.8084C216.36 90.9763 211.494 90.0983 206.365 90.574C202.757 90.909 199.43 92.0639 195.97 92.9634M256.409 -108.224C251.439 -111.744 249.767 -117.308 245.724 -121.497C243.758 -123.535 241.665 -125.49 238.438 -124.89C235.444 -124.333 234.878 -120.925 235.31 -118.651C236.199 -113.973 240.964 -107.325 238.131 -103C236.174 -100.012 232.676 -98.2931 230.797 -95.2827C228.837 -92.1412 229.767 -88.8029 228.666 -85.4894C227.75 -82.7322 225.389 -80.7687 224.335 -78.1091C222.682 -73.9404 224.896 -68.173 220.735 -65.1597C216.36 -61.9914 211.494 -62.8697 206.365 -62.3934C202.757 -62.0583 199.43 -60.9035 195.97 -60.0041M204.965 56.4146C200.24 64.0166 196.549 69.318 197.269 78.4317C197.694 83.8051 206.685 84.7856 209.986 80.9342C212.349 78.1777 211.713 73.9691 211.729 70.7025C211.75 66.1296 212.479 61.0932 214.571 56.9021C216.577 52.881 220.597 50.1674 223.241 46.5459C223.945 45.5814 225.521 43.4097 224.149 42.5397C219.12 39.3494 213.419 44.3698 209.094 46.3885C205.449 48.0895 201.052 48.7843 197.035 49.3311M204.965 -96.5529C200.24 -88.9509 196.549 -83.6494 197.269 -74.5359C197.694 -69.1629 206.685 -68.1816 209.986 -72.0332C212.35 -74.7898 211.713 -78.9984 211.729 -82.2649C211.75 -86.8379 212.479 -91.8742 214.571 -96.0654C216.577 -100.086 220.597 -102.8 223.241 -106.422C223.945 -107.386 225.521 -109.558 224.149 -110.428C219.12 -113.618 213.419 -108.598 209.094 -106.579C205.449 -104.878 201.052 -104.183 197.035 -103.636M221.581 -12.5842C225.304 -10.0572 225.282 -7.06849 221.718 -4.29656C217.403 -0.940762 211.074 -0.144716 210.728 5.99341C210.212 15.1528 223.411 16.3406 227.371 24.2504M207.476 -3.71206C202.253 -0.722466 198.429 4.75056 200.123 10.5754C201.491 15.2793 205.885 20.0025 209.626 23.3087C211.833 25.2592 219.189 28.8171 218.029 32.1822C217.183 34.6346 214.2 35.9475 211.644 36.4069C206.277 37.3715 200.9 35.5226 195.82 38.0634M206.059 30.2337C201.998 30.2337 198.374 27.1759 185.15 29.7021M372.466 30.2337C368.405 30.2337 364.781 27.1759 351.556 29.7022M196.886 23.5612C190.653 18.5559 182.882 7.76787 189.627 1.40105C201.422 -9.73208 182.682 -9.91763 177 -10.2826M363.293 23.5611C357.06 18.5558 349.289 7.76781 356.034 1.40099C363.667 -5.80393 358.512 -8.42381 352.383 -9.47454M365.572 -6.52262C359.515 -8.41834 340.441 -9.6014 341.372 -19.4042M375 -9.13924C372.442 -12.3144 369.515 -15.0453 365.351 -16.8156C360.898 -18.7084 355.958 -19.119 353.143 -22.9323C349.175 -28.3061 354.125 -32.8549 354.307 -38.3023C354.575 -46.3316 342.565 -55.2168 354.339 -73.043M208.485 -9.13929C205.927 -12.3144 203 -15.0454 198.836 -16.8157C194.383 -18.7085 189.443 -19.119 186.628 -22.9324C182.66 -28.3061 187.61 -32.8549 187.792 -38.3024C189.087 -47.1577 176.104 -51.8175 187.57 -72.7598M195.672 -51.076C208.141 -53.4338 210.52 -44.6694 197.741 -31.3003M342.972 -4.32394C344.594 2.45788 346.669 9.65455 345.167 16.6054C343.94 22.2822 340.334 27.2249 338.722 32.7852C336.134 41.713 338.181 46.9118 328.679 52.8094M341.093 65.827C335.917 62.4421 329.75 58.2687 322.988 59.0954M339.679 75.5414C335.589 72.7728 331.313 68.073 326.069 67.2534C323.06 66.7832 320.115 67.9661 317.079 67.8353C315.475 67.7665 308.116 67.9314 307.264 69.5991C305.248 73.5419 314.031 79.0047 314.282 83.4334M338.615 -67.0386C336.51 -51.4857 343.958 -52.528 345.895 -31.3004M323.121 -79.5994C323.826 -74.4866 324.571 -69.3082 326.716 -64.5168M323.121 73.4602C323.826 78.573 324.571 83.7513 326.716 88.5428M251.836 -46.2444C249.189 -47.0831 246.418 -47.8864 243.632 -48.1977M346.251 40.3272C343.476 46.2911 356.368 53.3288 357.234 78.015M179.744 40.3272C176.968 46.291 198.067 61.1609 183.052 90.3613M346.118 40.3272C343.57 47.2312 364.733 61.2889 348.164 92.1786M328.469 -54.5331C328.294 -55.5091 328.13 -56.7086 327.484 -57.5441C326.333 -59.0332 324.154 -59.2339 322.298 -59.0959C318.38 -58.8045 314.657 -57.3791 310.763 -56.9134C306.792 -56.4385 302.993 -56.8556 299.032 -56.7657C296.108 -56.6993 292.434 -56.0186 292.813 -52.7075C293.587 -45.9445 302.526 -47.164 307.464 -48.2309C308.628 -48.4822 309.792 -48.6855 310.979 -48.82C312.553 -48.9979 314.172 -49.16 315.759 -49.0998C318.783 -48.9846 321.814 -48.4582 324.738 -47.7691C327.11 -47.2102 329.537 -46.531 331.563 -45.243C337.315 -41.5866 338.73 -33.777 337.71 -27.9011C337.241 -25.1963 336.15 -22.6456 335.235 -20.0491M278.801 37.6237C266.696 39.7112 258.212 23.3822 266.825 15.8653C272.299 11.0872 280.434 10.3774 287.234 12.9496C290.465 14.1719 296.288 19.506 299.445 16.6763C300.74 15.5157 300.242 13.4534 299.856 12.051C298.774 8.13107 291.084 -2.35547 300.72 -2.40962C301.709 -2.41512 302.715 -2.28341 303.648 -1.97473C307.479 -0.707542 308.97 3.31137 309.838 6.65234C311.739 13.9593 311.449 25.1538 303.227 29.4355C299.258 31.5021 296.653 28.9932 293.659 26.7192C290.907 24.6286 287.464 22.2641 284.125 21.0682C280.925 19.9223 277.007 19.9047 274.714 22.5584C272.774 24.8033 274.631 27.9583 277.028 29.1222C279.425 30.2858 282.271 30.0376 284.658 31.1781C287.034 32.3136 288.825 34.266 291.164 35.4711C293.832 36.8449 296.943 37.3486 299.734 38.5062C302.084 39.481 305.485 40.9571 308.103 40.037C310.949 39.0362 310.131 34.7451 312.084 32.4528C314.485 29.6359 317.244 26.9554 318.962 23.7018C322.667 16.682 322.455 7.25197 319.813 -0.0633992C318.43 -3.89095 314.669 -6.7825 313.833 -10.7457C312.764 -15.8085 316.793 -19.9604 315.916 -24.5405C315.295 -27.7889 310.076 -29.2104 307.531 -26.993C302.55 -22.6518 309.57 -16.3581 306.68 -11.738M238.001 -8.39314C235.996 -14.6304 233.37 -19.8386 226.008 -21.709C224.246 -22.1562 222.481 -22.3831 220.653 -22.2916C215.717 -22.0449 208.523 -20.0415 208.635 -27.1907C208.759 -35.1485 222.042 -33.0157 227.438 -32.233C229.312 -31.9612 231.58 -31.8077 233.201 -30.8127C235.957 -29.1209 236.744 -25.6696 239.525 -24.1135C241.361 -23.0858 243.407 -24.3207 244.552 -25.6491C250.731 -32.8228 241.745 -42.5257 233.402 -43.018C228.69 -43.2957 223.587 -40.7811 219.033 -42.6768C214.997 -44.3567 215.426 -48.59 218.632 -50.8286C221.506 -52.8357 225.24 -55.9915 228.699 -56.1571C232.468 -56.3377 235.783 -55.7043 239.525 -56.1571C243.706 -56.6631 251.028 -56.9831 253.726 -53.9172M313.097 209.758C313.894 209.385 315.212 208.825 315.605 208.042C316.25 206.757 315.17 205.389 314.605 204.236C313.559 202.101 312.889 199.694 314.566 197.667C316.501 195.328 320.161 194.63 322.151 192.298C324.639 189.385 325.099 185.598 326.772 182.36C328.191 179.615 330.542 177.347 331.979 174.599C334.534 169.709 335.766 162.054 335.2 156.692C334.699 151.946 333.317 147.152 331.544 142.652C330.463 139.906 328.842 137.391 328.256 134.502C326.859 127.617 331.448 119.474 325.306 113.721C320.045 108.793 311.479 108.593 304.756 111.07C300.835 112.514 297.106 115.969 292.703 113.845C289.105 112.109 287.969 108.275 286.387 105.233C283.501 99.6828 278.508 94.8814 270.853 95.3912M283.559 124.944C285.114 124.489 286.879 123.785 288.533 123.852C292.794 124.026 295.774 127.983 296.885 131.38C297.377 132.887 298.784 137.751 297.844 139.197C297.001 140.496 295.16 141.044 293.681 141.47C292.858 141.707 291.69 142.194 290.816 142.039C289.606 141.824 289.445 140.37 289.181 139.477C288.605 137.527 287.499 135.758 286.047 134.25C284.244 132.377 281.859 131.046 279.229 130.437C277.338 129.999 274.497 130.162 273.442 128.284C272.617 126.815 274.415 124.519 275.149 123.313C276.932 120.388 278.593 117.036 278.093 113.607C277.626 110.404 276.232 108.065 273.509 106.063C272.232 105.125 270.168 104.528 268.691 105.455C267.097 106.455 267.259 108.392 267.666 109.913C268.209 111.944 268.822 114.394 268.348 116.483C267.144 121.8 259.41 126.509 261.511 132.354C262.683 135.615 268.338 136.406 271.145 138.2C276.484 141.613 277.942 147.847 277.185 153.482M288.178 218.08C291.88 215.95 297.628 215.104 300.358 211.862C305.121 206.205 299.077 196.458 291.843 196.044C286.438 195.735 281.738 197.564 276.733 199.042C274.541 199.69 270.678 200.636 268.453 199.6C265.3 198.131 264.818 195.414 263.326 192.75C261.697 189.841 259.431 187.233 257.724 184.347C254.345 178.635 251.458 171.958 255.242 165.777C257.557 161.996 261.447 159.188 264.062 155.577C266.313 152.466 267.993 147.107 263.55 144.852C257.142 141.6 256.076 148.85 253.726 151.862C251.551 154.65 248.196 156.326 245.832 158.934C243.225 161.81 241.933 171.262 235.194 166.768C233.688 165.763 232.443 164.585 230.843 163.662C228.86 162.517 226.657 161.169 225.519 159.221C223.913 156.47 225.738 155.419 228.699 154.757C235.126 153.32 241.547 154.251 245.578 148.266C249.161 142.947 247.368 136.942 248.695 131.215C249.836 126.298 253.626 122.628 255.139 117.922M287.606 218.399C287.004 218.808 286.412 219.284 285.943 219.823C282.895 223.322 288.217 226.039 290.974 227.175C291.588 227.428 292.236 227.633 292.87 227.843C293.708 228.12 294.531 228.452 295.317 228.837C296.414 229.373 297.558 229.976 298.494 230.733C301.073 232.818 301.69 236.127 298.868 238.262C297.464 239.324 295.589 239.872 293.815 240.119C290.147 240.63 285.094 239.924 282.365 237.43C280.771 235.975 279.918 234.004 278.772 232.263C277.275 229.99 275.476 227.907 273.31 226.139C271.76 224.874 269.969 223.778 268.065 223.023C265.723 222.094 263.261 221.496 261.296 219.93C257.855 217.186 255.315 211.845 249.877 212.931C245.886 213.727 247.163 219.722 248.251 222.057C248.564 222.727 248.936 223.38 249.397 223.975C253.233 228.933 261.247 228.278 266.437 231.557C268.574 232.907 271.345 235.972 268.679 238.115C262.848 242.801 255.72 236.766 250.275 234.946C246.722 233.759 242.112 234.484 239.837 231.144C239.382 230.475 239.035 229.751 238.778 228.999C237.917 226.472 237.765 223.8 238.756 221.285C239.606 219.127 241.455 217.121 241.237 214.692M291.121 207.019C284.017 205.734 279.752 210.938 273.018 211.027C264.869 211.134 254.805 203.066 248.471 198.882M253.708 193.047C248.737 189.527 250.22 186.283 246.178 182.094C244.212 180.057 240.502 176.453 237.275 177.054C234.281 177.611 231.093 180.952 231.526 183.226C232.415 187.904 240.964 195.509 238.131 199.834C236.174 202.822 232.676 204.541 230.797 207.551C228.837 210.693 229.767 214.031 228.666 217.345C227.75 220.102 225.389 222.065 224.335 224.725C222.682 228.894 224.896 234.661 220.735 237.675C216.36 240.843 211.494 239.965 206.365 240.441C202.757 240.776 199.43 241.931 195.97 242.83M204.965 206.281C200.24 213.883 196.549 219.185 197.269 228.298C197.694 233.672 206.685 234.652 209.986 230.801C212.349 228.044 211.713 223.836 211.729 220.569C211.75 215.996 212.479 210.96 214.571 206.769C216.577 202.748 220.597 200.034 223.241 196.412C223.945 195.448 225.521 193.276 224.149 192.406C219.12 189.216 213.419 194.236 209.094 196.255C205.449 197.956 201.052 198.651 197.035 199.198M221.581 137.282C225.304 139.809 225.282 142.798 221.718 145.57C217.403 148.926 211.074 149.722 210.728 155.86C210.212 165.019 223.411 166.207 227.371 174.117M207.476 146.155C202.253 149.144 198.429 154.617 200.123 160.442C201.491 165.146 205.885 169.869 209.626 173.175C211.833 175.126 219.189 178.684 218.029 182.049C217.183 184.501 214.2 185.814 211.644 186.273C206.277 187.238 200.9 185.389 195.82 187.93M206.059 180.1C201.998 180.1 198.374 177.042 185.15 179.569M372.466 180.1C368.405 180.1 364.781 177.042 351.556 179.569M196.886 173.428C190.653 168.422 182.882 157.634 189.627 151.268C201.422 140.134 182.682 139.949 177 139.584M363.293 173.428C357.06 168.422 349.289 157.634 356.034 151.268C363.667 144.063 358.512 141.443 352.383 140.392M365.572 143.344C359.515 141.448 340.441 140.265 341.372 130.462M375 140.727C372.442 137.552 369.515 134.821 365.351 133.051C360.898 131.158 355.958 130.748 353.143 126.934C349.175 121.56 354.125 117.012 354.307 111.564C354.575 103.535 342.565 94.6498 354.339 76.8235M208.485 140.727C205.927 137.552 203 134.821 198.836 133.051C194.383 131.158 189.443 130.748 186.628 126.934C182.66 121.56 187.61 117.012 187.792 111.564C189.087 102.709 176.104 98.049 187.57 77.1068M195.672 98.7906C208.141 96.4328 210.52 105.197 197.741 118.566M342.972 145.543C344.594 152.324 346.669 159.521 345.167 166.472C343.94 172.149 340.334 177.091 338.722 182.652C336.134 191.58 338.181 196.778 328.679 202.676M341.093 215.694C335.917 212.309 329.75 208.135 322.988 208.962M339.679 225.408C335.589 222.639 331.313 217.94 326.069 217.12C323.06 216.65 320.115 217.833 317.079 217.702C315.475 217.633 308.116 217.798 307.264 219.466C305.248 223.409 314.031 228.871 314.282 233.3M338.615 82.828C336.51 98.3809 343.958 97.3386 345.895 118.566M323.121 70.2672C323.826 75.38 324.571 80.5583 326.716 85.3498M323.121 223.327C323.826 228.44 324.571 233.618 326.716 238.409M251.836 103.622C249.189 102.783 246.418 101.98 243.632 101.669M346.251 190.194C343.476 196.158 356.368 203.195 357.234 227.882M179.744 190.194C176.968 196.158 198.067 211.027 183.052 240.228M346.118 190.194C343.57 197.098 364.733 211.155 348.164 242.045M328.469 95.3334C328.294 94.3575 328.13 93.1579 327.484 92.3224C326.333 90.8334 324.154 90.6326 322.298 90.7706C318.38 91.0621 314.657 92.4874 310.763 92.9532C306.792 93.428 302.993 93.011 299.032 93.1009C296.108 93.1672 292.434 93.848 292.813 97.159C293.587 103.922 302.526 102.703 307.464 101.636C308.628 101.384 309.792 101.181 310.979 101.047C312.553 100.869 314.172 100.707 315.759 100.767C318.783 100.882 321.814 101.408 324.738 102.097C327.11 102.656 329.537 103.336 331.563 104.624C337.315 108.28 338.73 116.09 337.71 121.965C337.241 124.67 336.15 127.221 335.235 129.817M278.801 187.49C266.696 189.578 258.212 173.249 266.825 165.732C272.299 160.954 280.434 160.244 287.234 162.816C290.465 164.038 296.288 169.373 299.445 166.543C300.74 165.382 300.242 163.32 299.856 161.918C298.774 157.998 291.084 147.511 300.72 147.457C301.709 147.451 302.715 147.583 303.648 147.892C307.479 149.159 308.97 153.178 309.838 156.519C311.739 163.826 311.449 175.02 303.227 179.302C299.258 181.369 296.653 178.86 293.659 176.586C290.907 174.495 287.464 172.131 284.124 170.935C280.925 169.789 277.007 169.771 274.714 172.425C272.774 174.67 274.631 177.825 277.028 178.989C279.425 180.152 282.271 179.904 284.658 181.045C287.034 182.18 288.825 184.133 291.164 185.338C293.832 186.711 296.943 187.215 299.734 188.373C302.084 189.348 305.485 190.824 308.103 189.904C310.949 188.903 310.131 184.612 312.084 182.319C314.485 179.502 317.244 176.822 318.962 173.568C322.667 166.548 322.455 157.119 319.813 149.803C318.43 145.976 314.669 143.084 313.833 139.121C312.764 134.058 316.793 129.906 315.916 125.326C315.295 122.078 310.076 120.656 307.531 122.874C302.55 127.215 309.57 133.508 306.68 138.129M238.001 141.473C235.996 135.236 233.37 130.028 226.008 128.158C224.246 127.71 222.481 127.483 220.653 127.575C215.717 127.822 208.523 129.825 208.635 122.676C208.759 114.718 222.042 116.851 227.438 117.634C229.312 117.905 231.58 118.059 233.201 119.054C235.957 120.746 236.744 124.197 239.525 125.753C241.361 126.781 243.407 125.546 244.552 124.217C250.731 117.044 241.745 107.341 233.402 106.849C228.69 106.571 223.587 109.085 219.033 107.19C214.997 105.51 215.426 101.277 218.632 99.0379C221.506 97.0309 225.24 93.8751 228.699 93.7095C232.468 93.5289 235.783 94.1623 239.525 93.7095C243.706 93.2034 251.028 92.8835 253.726 95.9494" stroke="white" stroke-width="3" stroke-miterlimit="1.5" stroke-linecap="round" stroke-linejoin="round"/>
</g>
<defs>
<linearGradient id="paint0_linear_364_191" x1="445.5" y1="0" x2="445.5" y2="197.855" gradientUnits="userSpaceOnUse">
<stop stop-color="#DEB86F"/>
<stop offset="1" stop-color="#DEB86F" stop-opacity="0"/>
</linearGradient>
</defs>
</svg>
