<svg width="200" height="298" viewBox="0 0 200 298" fill="none" xmlns="http://www.w3.org/2000/svg">
<mask id="mask0_365_192" style="mask-type:alpha" maskUnits="userSpaceOnUse" x="0" y="0" width="200" height="298">
<rect width="200" height="298" rx="15" fill="url(#paint0_linear_365_192)"/>
</mask>
<g mask="url(#mask0_365_192)">
<path opacity="0.2" d="M89.0676 47.903C88.6592 47.1059 88.0473 45.7883 87.1916 45.395C85.7876 44.7499 84.2927 45.83 83.0322 46.3951C80.699 47.4408 78.0678 48.1111 75.853 46.4344C73.2964 44.4991 72.5337 40.8393 69.9855 38.8486C66.8012 36.3612 62.6633 35.9007 59.1243 34.2275C56.1238 32.809 53.6459 30.4581 50.6423 29.0215C45.2978 26.4656 36.9316 25.2339 31.0717 25.8C25.8852 26.3012 20.6455 27.6834 15.7273 29.4556C12.7261 30.5369 9.97771 32.1576 6.82039 32.744C-0.704945 34.1415 -9.60364 29.5523 -15.8914 35.6942C-21.2772 40.9548 -21.4955 49.5214 -18.789 56.2444C-17.2107 60.1646 -13.4348 63.8938 -15.7561 68.2972C-17.6527 71.8951 -21.8427 73.0313 -25.1675 74.613C-31.2336 77.4987 -36.4811 82.4919 -35.9239 90.1469M-3.62625 77.4409C-4.12327 75.886 -4.89263 74.1206 -4.81873 72.4665C-4.62865 68.206 -0.304434 65.2255 3.40775 64.1152C5.05461 63.6225 10.3707 62.2164 11.9514 63.1556C13.3714 63.9991 13.9702 65.8404 14.4353 67.3189C14.6943 68.1418 15.227 69.3096 15.0572 70.1839C14.8221 71.3942 13.2333 71.5553 12.2576 71.8189C10.1264 72.3948 8.1932 73.5012 6.54433 74.9531C4.49741 76.756 3.04313 79.1407 2.37727 81.771C1.89864 83.6615 2.07751 86.5034 0.0242374 87.5583C-1.58084 88.3828 -4.09068 86.5853 -5.4082 85.8506C-8.60497 84.0682 -12.2683 82.4073 -16.0165 82.9072C-19.517 83.3743 -22.0731 84.7681 -24.2605 87.4909C-25.2863 88.768 -25.9381 90.8318 -24.9254 92.3092C-23.8325 93.903 -21.7157 93.7406 -20.053 93.3339C-17.8337 92.7909 -15.1563 92.1782 -12.8727 92.6516C-7.06142 93.8563 -1.91502 101.59 4.47267 99.4886C8.0364 98.3166 8.90054 92.6618 10.8615 89.855C14.5919 84.5159 21.4048 83.0581 27.5629 83.8151M98.162 72.822C95.8342 69.1198 94.9097 63.3724 91.3663 60.6422C85.1839 55.8788 74.5319 61.923 74.0795 69.1574C73.7417 74.5618 75.7404 79.2616 77.3562 84.2669C78.0635 86.4587 79.0982 90.3222 77.9652 92.547C76.3598 95.7003 73.3911 96.1815 70.4788 97.6738C67.3005 99.3026 64.4499 101.569 61.2961 103.276C55.0529 106.655 47.7555 109.542 41.0002 105.758C36.8686 103.443 33.7991 99.5529 29.8525 96.9385C26.4528 94.6867 20.5964 93.0074 18.132 97.4497C14.5771 103.858 22.5012 104.924 25.7924 107.274C28.8399 109.449 30.6713 112.804 33.5215 115.168C36.6648 117.775 46.9955 119.067 42.083 125.806C40.985 127.312 39.6972 128.557 38.689 130.157C37.4382 132.14 35.9647 134.343 33.8353 135.481C30.8293 137.087 29.6805 135.262 28.9571 132.301C27.3868 125.874 28.4037 119.453 21.8629 115.422C16.0501 111.839 9.48641 113.632 3.22795 112.305C-2.14631 111.164 -6.15674 107.374 -11.3003 105.861M98.5112 73.3937C98.9583 73.9963 99.478 74.5876 100.067 75.0568C103.892 78.1049 106.86 72.7832 108.102 70.0263C108.379 69.4116 108.603 68.7643 108.832 68.1303C109.135 67.2918 109.498 66.4691 109.918 65.6826C110.505 64.5858 111.163 63.4425 111.991 62.5056C114.269 59.9273 117.886 59.3103 120.219 62.132C121.38 63.5355 121.978 65.4107 122.249 67.1853C122.807 70.8529 122.035 75.9057 119.31 78.6352C117.72 80.2289 115.565 81.0816 113.663 82.2279C111.179 83.7253 108.902 85.5236 106.97 87.6896C105.588 89.2397 104.39 91.0305 103.564 92.9354C102.549 95.2774 101.896 97.7392 100.184 99.7043C97.1854 103.145 91.3483 105.685 92.5345 111.123C93.4051 115.114 99.9572 113.837 102.508 112.749C103.241 112.436 103.954 112.064 104.605 111.603C110.023 107.767 109.308 99.7529 112.891 94.5627C114.366 92.4255 117.717 89.6548 120.059 92.321C125.18 98.1517 118.584 105.28 116.595 110.725C115.298 114.278 116.09 118.888 112.439 121.163C111.708 121.618 110.918 121.965 110.095 122.222C107.334 123.083 104.413 123.235 101.665 122.244C99.3063 121.394 97.1143 119.545 94.4594 119.763M-68.6664 73.3937C-68.2193 73.9963 -67.6996 74.5876 -67.1105 75.0568C-63.2859 78.1049 -60.3171 72.7832 -59.0758 70.0263C-58.7989 69.4116 -58.5748 68.7643 -58.3458 68.1303C-58.043 67.2918 -57.6795 66.4691 -57.2592 65.6826C-56.6728 64.5858 -56.0141 63.4425 -55.1866 62.5056C-52.9085 59.9273 -49.2912 59.3103 -46.9585 62.132C-45.7983 63.5355 -45.1986 65.4107 -44.9284 67.1853C-44.37 70.8529 -45.1432 75.9057 -47.8668 78.6352C-49.4572 80.2289 -51.6129 81.0816 -53.5148 82.2279C-55.9988 83.7253 -58.2758 85.5236 -60.2072 87.6896C-61.5896 89.2397 -62.7878 91.0305 -63.6133 92.9354C-64.6282 95.2774 -65.2815 97.7392 -66.9938 99.7043C-69.9922 103.145 -75.8292 105.685 -74.6431 111.123C-73.7725 115.114 -67.2204 113.837 -64.6691 112.749C-63.9363 112.436 -63.2236 112.064 -62.5728 111.603C-57.1546 107.767 -57.8697 99.7529 -54.2869 94.5627C-52.8115 92.4255 -49.4601 89.6548 -47.1184 92.321C-41.9978 98.1517 -48.5937 105.28 -50.5822 110.725C-51.8798 114.278 -51.0878 118.888 -54.7383 121.163C-55.4693 121.618 -56.2601 121.965 -57.082 122.222C-59.8437 123.083 -62.7641 123.235 -65.5123 122.244C-67.8712 121.394 -70.0633 119.545 -72.7182 119.763M86.0733 69.8786C84.6692 76.983 90.3569 81.2483 90.4539 87.9818C90.5714 96.1312 81.7539 106.195 77.1811 112.529M70.8034 107.292C66.9563 112.263 63.4118 110.78 58.8335 114.822C56.6067 116.788 52.6685 120.498 53.325 123.725C53.9338 126.719 57.5853 129.907 60.0706 129.474C65.1832 128.585 73.4943 120.036 78.2212 122.869C81.4872 124.826 83.3653 128.324 86.6555 130.203C90.0889 132.163 93.7374 131.233 97.3586 132.334C100.372 133.25 102.518 135.611 105.425 136.665C109.98 138.318 116.284 136.104 119.577 140.265C123.04 144.64 122.08 149.506 122.6 154.635C122.966 158.243 124.228 161.57 125.211 165.03M-94.6658 104.591C-98.5129 109.561 -104.594 111.233 -109.172 115.276C-111.399 117.242 -113.536 119.335 -112.879 122.562C-112.271 125.556 -108.547 126.122 -106.062 125.69C-100.949 124.801 -93.6833 120.036 -88.9562 122.869C-85.6904 124.826 -83.8121 128.324 -80.5221 130.203C-77.0888 132.163 -73.4403 131.233 -69.819 132.334C-66.8057 133.25 -64.6598 135.611 -61.7531 136.665C-57.1971 138.318 -50.894 136.104 -47.6007 140.265C-44.1381 144.64 -45.098 149.506 -44.5774 154.635C-44.2113 158.243 -42.9492 161.57 -41.9662 165.03M85.2673 156.035C93.5756 160.76 99.3694 164.451 109.33 163.731C115.202 163.306 116.274 154.315 112.065 151.014C109.052 148.65 104.453 149.287 100.883 149.271C95.8848 149.25 90.3806 148.521 85.8001 146.429C81.4055 144.423 78.4398 140.403 74.4819 137.759C73.4278 137.055 71.0544 135.479 70.1035 136.851C66.6168 141.88 72.1036 147.581 74.3098 151.906C76.1688 155.551 76.9282 159.948 77.5258 163.965M-81.9102 156.035C-73.602 160.76 -67.8081 164.451 -57.8479 163.731C-51.9759 163.306 -50.9034 154.315 -55.1128 151.014C-58.1255 148.65 -62.725 149.287 -66.295 149.271C-71.2928 149.25 -76.797 148.521 -81.3775 146.429C-85.7721 144.423 -88.7378 140.403 -92.6957 137.759C-93.7498 137.055 -96.1232 135.479 -97.0741 136.851C-100.561 141.88 -95.074 147.581 -92.8677 151.906C-91.0087 155.551 -90.2494 159.948 -89.6517 163.965M9.85883 139.419C12.6206 135.696 15.8869 135.718 18.9163 139.282C22.5839 143.597 23.4539 149.926 30.1622 150.272C40.1725 150.788 41.4706 137.589 50.1152 133.629M19.5551 153.524C22.8225 158.747 28.8039 162.571 35.1699 160.877C40.3108 159.509 45.4727 155.115 49.0861 151.374C51.2178 149.167 55.1061 141.811 58.7839 142.971C61.4641 143.817 62.899 146.8 63.401 149.356C64.4552 154.723 62.4345 160.1 65.2114 165.18M56.6543 154.941C56.6543 159.002 53.3125 162.626 56.0734 175.85M56.6543 -11.4659C56.6543 -7.40461 53.3125 -3.78094 56.0734 9.44372M49.3619 164.114C43.8917 170.347 32.1015 178.118 25.1433 171.373C12.9759 159.578 12.7731 178.318 12.3742 184M49.3619 -2.29297C43.8916 3.94035 32.1014 11.7114 25.1432 4.96608C17.2689 -2.66684 14.4057 2.48816 13.2573 8.61662M16.4835 -4.57224C14.4117 1.48459 13.1187 20.5587 2.40529 19.6279M13.6238 -14C10.1537 -11.4425 7.16907 -8.51512 5.23433 -4.35063C3.16567 0.101761 2.71696 5.04192 -1.45061 7.85724C-7.32356 11.8247 -12.2949 6.87519 -18.2485 6.69306C-27.0236 6.42464 -36.7342 18.4345 -56.2164 6.66073M13.6238 152.515C10.1536 155.073 7.16903 158 5.23428 162.164C3.16562 166.617 2.71693 171.557 -1.45065 174.372C-7.3236 178.34 -12.295 173.39 -18.2485 173.208C-27.9264 171.913 -33.0191 184.896 -55.9069 173.43M-32.2087 165.328C-34.7856 152.859 -25.207 150.48 -10.596 163.259M18.8864 18.0284C26.2982 16.4059 34.1635 14.3306 41.76 15.8333C47.9641 17.0604 53.366 20.6659 59.4429 22.2778C69.2 24.8659 74.8817 22.8192 81.3273 32.3206M95.5541 19.9067C91.8548 25.0829 87.2937 31.2505 88.1971 38.0117M106.171 21.3211C103.145 25.4114 98.0088 29.6869 97.1131 34.9309C96.5992 37.9397 97.892 40.8849 97.749 43.921C97.6738 45.525 97.854 52.8837 99.6766 53.7363C103.986 55.7523 109.956 46.9687 114.796 46.7176M-49.6542 22.3855C-32.6565 24.4903 -33.7956 17.0424 -10.5961 15.1046M-63.3818 37.8786C-57.794 37.1738 -52.1347 36.4293 -46.8981 34.2842M103.896 37.8786C109.484 37.1738 115.144 36.4293 120.38 34.2842M-26.9283 109.164C-27.8449 111.811 -28.7228 114.582 -29.063 117.368M67.6854 14.749C74.2034 17.5244 81.8949 4.63226 108.874 3.76646M67.6854 181.256C74.2034 184.032 90.4545 162.933 122.368 177.948M67.6854 14.8819C75.2308 17.4301 90.5945 -3.73323 124.354 12.836M-35.987 32.5311C-37.0536 32.706 -38.3646 32.8701 -39.2777 33.5162C-40.9051 34.6674 -41.1245 36.8455 -40.9737 38.7025C-40.6552 42.6197 -39.0974 46.3429 -38.5884 50.2371C-38.0694 54.2077 -38.5252 58.0071 -38.4269 61.9683C-38.3544 64.8924 -37.6104 68.5665 -33.9918 68.1874C-26.6006 67.4129 -27.9333 58.4744 -29.0993 53.5356C-29.374 52.3724 -29.5962 51.2084 -29.7432 50.0206C-29.9376 48.4471 -30.1148 46.8281 -30.0489 45.2411C-29.923 42.2175 -29.3478 39.1861 -28.5946 36.2618C-27.9838 33.8898 -27.2415 31.4633 -25.8339 29.437C-21.8378 23.6848 -13.3027 22.2703 -6.88094 23.2898C-3.9249 23.759 -1.13722 24.8496 1.70046 25.7647M64.7308 82.199C67.0123 94.3038 49.1664 102.788 40.9511 94.1755C35.7292 88.7008 34.9535 80.5656 37.7646 73.7662C39.1005 70.5347 44.9301 64.7117 41.8375 61.5548C40.5691 60.26 38.3152 60.7575 36.7826 61.1444C32.4985 62.226 21.0378 69.9164 20.9786 60.2796C20.9726 59.2906 21.1165 58.2845 21.4539 57.3517C22.8388 53.5208 27.231 52.0301 30.8824 51.1615C38.8681 49.2613 51.1025 49.5507 55.782 57.7732C58.0405 61.7416 55.2986 64.3466 52.8134 67.3407C50.5286 70.0934 47.9443 73.5364 46.6374 76.8755C45.385 80.0748 45.3658 83.9925 48.266 86.286C50.7195 88.2264 54.1675 86.3693 55.4396 83.9721C56.7113 81.5748 56.44 78.7289 57.6865 76.342C58.9274 73.9655 61.0613 72.1752 62.3783 69.8357C63.8797 67.1677 64.4302 64.0567 65.6953 61.2657C66.7607 58.9156 68.3739 55.5149 67.3684 52.8971C66.2745 50.0506 61.5849 50.869 59.0795 48.9155C56.001 46.5149 53.0715 43.7556 49.5156 42.0381C41.8437 38.3331 31.5377 38.5452 23.5428 41.1874C19.3596 42.5701 16.1995 46.3312 11.8681 47.1674C6.33499 48.2356 1.79745 44.2072 -3.20819 45.0837C-6.75837 45.7052 -8.31195 50.924 -5.88854 53.4687C-1.14404 58.4504 5.73432 51.4299 10.7836 54.3197M14.4392 122.999C7.62255 125.004 1.93048 127.63 -0.1136 134.992C-0.602428 136.754 -0.850351 138.519 -0.750379 140.347C-0.480721 145.283 1.7088 152.477 -6.10459 152.365C-14.8017 152.241 -12.4707 138.958 -11.6153 133.562C-11.3182 131.688 -11.1505 129.42 -10.063 127.799C-8.21403 125.043 -4.44216 124.256 -2.74146 121.475C-1.61836 119.639 -2.96799 117.593 -4.41976 116.448C-12.2599 110.269 -22.8641 119.255 -23.4021 127.598C-23.7057 132.31 -20.9575 137.413 -23.0293 141.967C-24.8653 146.003 -29.4917 145.574 -31.9384 142.368C-34.1319 139.494 -37.5809 135.76 -37.7618 132.301C-37.9592 128.532 -37.267 125.217 -37.7618 121.475C-38.3149 117.294 -38.6645 109.972 -35.3139 107.274M252.856 47.903C252.448 47.1059 251.836 45.7883 250.98 45.395C249.576 44.7499 248.081 45.83 246.821 46.3951C244.488 47.4408 241.856 48.1111 239.642 46.4344C237.085 44.4991 236.322 40.8393 233.774 38.8486C230.59 36.3612 226.452 35.9007 222.913 34.2275C219.912 32.809 217.434 30.4581 214.431 29.0215C209.086 26.4656 200.72 25.2339 194.86 25.8C189.674 26.3012 184.434 27.6834 179.516 29.4556C176.515 30.5369 173.766 32.1576 170.609 32.744C163.084 34.1415 154.185 29.5523 147.897 35.6942C142.511 40.9548 142.293 49.5214 145 56.2444C146.578 60.1646 150.354 63.8938 148.032 68.2972C146.136 71.8951 141.946 73.0313 138.621 74.613C132.555 77.4987 127.308 82.4919 127.865 90.1469M160.162 77.4409C159.665 75.886 158.896 74.1206 158.97 72.4665C159.16 68.206 163.484 65.2255 167.196 64.1152C168.843 63.6225 174.159 62.2164 175.74 63.1556C177.16 63.9991 177.759 65.8404 178.224 67.3189C178.483 68.1418 179.016 69.3096 178.846 70.1839C178.611 71.3942 177.022 71.5553 176.046 71.8189C173.915 72.3948 171.982 73.5012 170.333 74.9531C168.286 76.756 166.832 79.1407 166.166 81.771C165.687 83.6615 165.866 86.5034 163.813 87.5583C162.208 88.3828 159.698 86.5853 158.38 85.8506C155.184 84.0682 151.52 82.4073 147.772 82.9072C144.272 83.3743 141.715 84.7681 139.528 87.4909C138.502 88.768 137.851 90.8318 138.863 92.3092C139.956 93.903 142.073 93.7406 143.736 93.3339C145.955 92.7909 148.632 92.1782 150.916 92.6516C156.727 93.8563 161.874 101.59 168.261 99.4886C171.825 98.3166 172.689 92.6618 174.65 89.855C178.381 84.5159 185.193 83.0581 191.352 83.8151M261.951 72.822C259.623 69.1198 258.698 63.3724 255.155 60.6422C248.973 55.8788 238.321 61.923 237.868 69.1574C237.53 74.5618 239.529 79.2616 241.145 84.2669C241.852 86.4587 242.887 90.3222 241.754 92.547C240.148 95.7003 237.18 96.1815 234.267 97.6738C231.089 99.3026 228.239 101.569 225.085 103.276C218.841 106.655 211.544 109.542 204.789 105.758C200.657 103.443 197.588 99.5529 193.641 96.9385C190.241 94.6867 184.385 93.0074 181.921 97.4497C178.366 103.858 186.29 104.924 189.581 107.274C192.629 109.449 194.46 112.804 197.31 115.168C200.453 117.775 210.784 119.067 205.872 125.806C204.774 127.312 203.486 128.557 202.478 130.157C201.227 132.14 199.753 134.343 197.624 135.481C194.618 137.087 193.469 135.262 192.746 132.301C191.175 125.874 192.192 119.453 185.652 115.422C179.839 111.839 173.275 113.632 167.017 112.305C161.642 111.164 157.632 107.374 152.488 105.861M262.3 73.3937C262.747 73.9963 263.267 74.5876 263.856 75.0568C267.68 78.1049 270.649 72.7832 271.891 70.0263C272.167 69.4116 272.392 68.7643 272.62 68.1303C272.923 67.2918 273.287 66.4691 273.707 65.6826C274.293 64.5858 274.952 63.4425 275.78 62.5056C278.058 59.9273 281.674 59.3103 284.008 62.132C285.168 63.5355 285.767 65.4107 286.038 67.1853C286.596 70.8529 285.824 75.9057 283.099 78.6352C281.509 80.2289 279.354 81.0816 277.451 82.2279C274.967 83.7253 272.69 85.5236 270.759 87.6896C269.377 89.2397 268.179 91.0305 267.353 92.9354C266.338 95.2774 265.685 97.7392 263.973 99.7043C260.974 103.145 255.137 105.685 256.323 111.123C257.194 115.114 263.746 113.837 266.297 112.749C267.03 112.436 267.743 112.064 268.394 111.603C273.812 107.767 273.097 99.7529 276.679 94.5627C278.155 92.4255 281.505 89.6548 283.848 92.321C288.968 98.1517 282.373 105.28 280.384 110.725C279.086 114.278 279.879 118.888 276.228 121.163C275.497 121.618 274.706 121.965 273.884 122.222C271.123 123.083 268.202 123.235 265.454 122.244C263.095 121.394 260.903 119.545 258.248 119.763M249.862 69.8786C248.458 76.983 254.146 81.2483 254.242 87.9818C254.36 96.1312 245.543 106.195 240.97 112.529M234.592 107.292C230.745 112.263 227.2 110.78 222.622 114.822C220.395 116.788 216.457 120.498 217.114 123.725C217.722 126.719 221.374 129.907 223.859 129.474C228.972 128.585 237.283 120.036 242.01 122.869C245.276 124.826 247.154 128.324 250.444 130.203C253.877 132.163 257.526 131.233 261.147 132.334C264.16 133.25 266.306 135.611 269.213 136.665C273.769 138.318 280.073 136.104 283.366 140.265C286.828 144.64 285.869 149.506 286.389 154.635C286.755 158.243 288.017 161.57 289 165.03M249.056 156.035C257.364 160.76 263.158 164.451 273.118 163.731C278.991 163.306 280.063 154.315 275.853 151.014C272.841 148.65 268.241 149.287 264.671 149.271C259.673 149.25 254.169 148.521 249.589 146.429C245.194 144.423 242.228 140.403 238.271 137.759C237.216 137.055 234.843 135.479 233.892 136.851C230.405 141.88 235.892 147.581 238.098 151.906C239.957 155.551 240.717 159.948 241.314 163.965M173.647 139.419C176.409 135.696 179.676 135.718 182.705 139.282C186.373 143.597 187.242 149.926 193.951 150.272C203.961 150.788 205.259 137.589 213.904 133.629M183.344 153.524C186.611 158.747 192.593 162.571 198.959 160.877C204.099 159.509 209.261 155.115 212.875 151.374C215.006 149.167 218.895 141.811 222.573 142.971C225.253 143.817 226.688 146.8 227.19 149.356C228.244 154.723 226.223 160.1 229 165.18M220.443 154.941C220.443 159.002 217.101 162.626 219.862 175.85M220.443 -11.4659C220.443 -7.40461 217.101 -3.78094 219.862 9.44372M213.151 164.114C207.68 170.347 195.89 178.118 188.932 171.373C176.765 159.578 176.562 178.318 176.163 184M213.151 -2.29297C207.68 3.94035 195.89 11.7114 188.932 4.96608C181.058 -2.66684 178.194 2.48816 177.046 8.61662M180.272 -4.57224C178.2 1.48459 176.907 20.5587 166.194 19.6279M177.412 -14C173.942 -11.4425 170.958 -8.51512 169.023 -4.35063C166.954 0.101761 166.506 5.04192 162.338 7.85724C156.465 11.8247 151.494 6.87519 145.54 6.69306C136.765 6.42464 127.054 18.4345 107.572 6.66073M177.412 152.515C173.942 155.073 170.958 158 169.023 162.164C166.954 166.617 166.506 171.557 162.338 174.372C156.465 178.34 151.494 173.39 145.54 173.208C135.862 171.913 130.769 184.896 107.882 173.43M131.58 165.328C129.003 152.859 138.582 150.48 153.193 163.259M182.675 18.0284C190.087 16.4059 197.952 14.3306 205.549 15.8333C211.753 17.0604 217.155 20.6659 223.232 22.2778C232.989 24.8659 238.67 22.8192 245.116 32.3206M259.343 19.9067C255.643 25.0829 251.082 31.2505 251.986 38.0117M269.96 21.3211C266.934 25.4114 261.797 29.6869 260.902 34.9309C260.388 37.9397 261.681 40.8849 261.538 43.921C261.462 45.525 261.643 52.8837 263.465 53.7363C267.774 55.7523 273.745 46.9687 278.585 46.7176M114.134 22.3855C131.132 24.4903 129.993 17.0424 153.193 15.1046M100.407 37.8786C105.995 37.1738 111.654 36.4293 116.891 34.2842M267.685 37.8786C273.273 37.1738 278.932 36.4293 284.169 34.2842M136.86 109.164C135.944 111.811 135.066 114.582 134.726 117.368M231.474 14.749C237.992 17.5244 245.684 4.63226 272.663 3.76646M231.474 181.256C237.992 184.032 254.243 162.933 286.156 177.948M231.474 14.8819C239.019 17.4301 254.383 -3.73323 288.142 12.836M127.802 32.5311C126.735 32.706 125.424 32.8701 124.511 33.5162C122.883 34.6674 122.664 36.8455 122.815 38.7025C123.133 42.6197 124.691 46.3429 125.2 50.2371C125.719 54.2077 125.263 58.0071 125.362 61.9683C125.434 64.8924 126.178 68.5665 129.797 68.1874C137.188 67.4129 135.855 58.4744 134.689 53.5356C134.415 52.3724 134.192 51.2084 134.045 50.0206C133.851 48.4471 133.674 46.8281 133.74 45.2411C133.866 42.2175 134.441 39.1861 135.194 36.2618C135.805 33.8898 136.547 31.4633 137.955 29.437C141.951 23.6848 150.486 22.2703 156.908 23.2898C159.864 23.759 162.651 24.8496 165.489 25.7647M228.519 82.199C230.801 94.3038 212.955 102.788 204.74 94.1755C199.518 88.7008 198.742 80.5656 201.553 73.7662C202.889 70.5347 208.719 64.7117 205.626 61.5548C204.358 60.26 202.104 60.7575 200.571 61.1444C196.287 62.226 184.826 69.9164 184.767 60.2796C184.761 59.2906 184.905 58.2845 185.242 57.3517C186.627 53.5208 191.02 52.0301 194.671 51.1615C202.657 49.2613 214.891 49.5507 219.571 57.7732C221.829 61.7416 219.087 64.3466 216.602 67.3407C214.317 70.0934 211.733 73.5364 210.426 76.8755C209.174 80.0748 209.154 83.9925 212.055 86.286C214.508 88.2264 217.956 86.3693 219.228 83.9721C220.5 81.5748 220.229 78.7289 221.475 76.342C222.716 73.9655 224.85 72.1752 226.167 69.8357C227.668 67.1677 228.219 64.0567 229.484 61.2657C230.549 58.9156 232.163 55.5149 231.157 52.8971C230.063 50.0506 225.373 50.869 222.868 48.9155C219.79 46.5149 216.86 43.7556 213.304 42.0381C205.632 38.3331 195.326 38.5452 187.331 41.1874C183.148 42.5701 179.988 46.3312 175.657 47.1674C170.124 48.2356 165.586 44.2072 160.58 45.0837C157.03 45.7052 155.477 50.924 157.9 53.4687C162.645 58.4504 169.523 51.4299 174.572 54.3197M178.228 122.999C171.411 125.004 165.719 127.63 163.675 134.992C163.186 136.754 162.938 138.519 163.038 140.347C163.308 145.283 165.497 152.477 157.684 152.365C148.987 152.241 151.318 138.958 152.173 133.562C152.47 131.688 152.638 129.42 153.726 127.799C155.575 125.043 159.346 124.256 161.047 121.475C162.17 119.639 160.821 117.593 159.369 116.448C151.529 110.269 140.924 119.255 140.386 127.598C140.083 132.31 142.831 137.413 140.759 141.967C138.923 146.003 134.297 145.574 131.85 142.368C129.657 139.494 126.208 135.76 126.027 132.301C125.829 128.532 126.522 125.217 126.027 121.475C125.474 117.294 125.124 109.972 128.475 107.274" stroke="white" stroke-width="3" stroke-miterlimit="1.5" stroke-linecap="round" stroke-linejoin="round"/>
</g>
<defs>
<linearGradient id="paint0_linear_365_192" x1="100" y1="0" x2="100" y2="166.556" gradientUnits="userSpaceOnUse">
<stop stop-color="#DEB86F"/>
<stop offset="1" stop-color="#DEB86F" stop-opacity="0"/>
</linearGradient>
</defs>
</svg>
