<svg width="30" height="21" viewBox="0 0 30 21" fill="none" xmlns="http://www.w3.org/2000/svg">
<path d="M28.6579 3.48162L28.6587 3.48462C28.9557 4.57001 29.1086 6.30463 29.1828 7.82386C29.2194 8.57184 29.2362 9.24821 29.2438 9.73763C29.2476 9.98217 29.2491 10.1796 29.2497 10.3154C29.25 10.3834 29.25 10.4359 29.25 10.4711L29.2499 10.5108L29.2499 10.5206L29.2499 10.5229L29.2499 10.5233L29.2499 10.5233V10.5271V10.5271V10.5272V10.5277L29.2499 10.5299L29.2499 10.5397L29.2497 10.5793C29.2496 10.6144 29.2493 10.6667 29.2487 10.7343C29.2475 10.8696 29.2451 11.0662 29.2404 11.3098C29.2308 11.7972 29.2117 12.4709 29.1736 13.2164C29.0963 14.7281 28.9439 16.4595 28.6574 17.5498C28.3806 18.5752 27.5702 19.3856 26.5449 19.6623C26.034 19.7964 25.0742 19.909 23.8598 19.9961C22.6644 20.0819 21.2823 20.1395 19.9667 20.1779C18.6522 20.2164 17.41 20.2356 16.496 20.2452C16.0391 20.2501 15.6646 20.2525 15.4046 20.2537C15.2745 20.2543 15.1731 20.2546 15.1043 20.2547L15.0262 20.2548L15.0064 20.2549L15.0015 20.2549H15.0003H15L14.9999 21.0049L14.9999 20.2549H14.9996H14.9984L14.9935 20.2549L14.9738 20.2548L14.8959 20.2547C14.8273 20.2545 14.7262 20.2542 14.5965 20.2536C14.3371 20.2524 13.9635 20.2499 13.5077 20.2449C12.5958 20.2349 11.356 20.2149 10.0434 20.1749C8.72949 20.1349 7.34863 20.0751 6.15259 19.9859C4.93578 19.8951 3.97297 19.7779 3.45799 19.6384L3.45691 19.6381C2.43034 19.3618 1.61898 18.5506 1.34226 17.5242C1.05619 16.4477 0.903599 14.7171 0.826249 13.201C0.788138 12.454 0.769053 11.778 0.75951 11.2886C0.754742 11.0441 0.752364 10.8466 0.751178 10.7107C0.750585 10.6427 0.750291 10.5902 0.750144 10.5548L0.750017 10.515L0.750002 10.5052L0.75 10.5029L0.75 10.5025V10.5024L0.75 10.5019L0.750002 10.4996L0.750017 10.4899L0.750144 10.4503C0.750291 10.4152 0.750585 10.3629 0.751178 10.2952C0.752363 10.1599 0.754741 9.96332 0.759509 9.71977C0.769051 9.23236 0.788135 8.55862 0.826245 7.81318C0.903536 6.30138 1.05602 4.56988 1.34253 3.47964C1.6198 2.45271 2.45619 1.61825 3.45667 1.34208C3.96789 1.20825 4.92702 1.09577 6.14008 1.00871C7.33551 0.922909 8.71757 0.865372 10.0332 0.826903C11.3477 0.788469 12.5899 0.769232 13.5039 0.759611C13.9608 0.754802 14.3352 0.752399 14.5953 0.751199C14.7254 0.750598 14.8268 0.750299 14.8955 0.750149L14.9737 0.750018L14.9935 0.750002L14.9984 0.75L14.9996 0.75L14.9999 0.75L14.9999 0L15 0.75L15.0003 0.75L15.0014 0.75L15.0063 0.750002L15.0261 0.750019L15.1043 0.750155C15.173 0.75031 15.2744 0.750622 15.4044 0.751246C15.6644 0.752495 16.0389 0.754994 16.4957 0.759994C17.4095 0.769999 18.6516 0.790002 19.9658 0.829966C21.2812 0.869968 22.6628 0.929791 23.8577 1.01897C25.0739 1.10975 26.0324 1.22697 26.54 1.3659L26.543 1.36671C27.5698 1.64318 28.3814 2.45474 28.6579 3.48162Z" stroke="#E63632" stroke-width="1.5"/>
<path d="M12.0093 13.2697C12.0093 14.039 12.8417 14.5202 13.5084 14.1363L18.3136 11.3687C18.9815 10.984 18.9815 10.0203 18.3136 9.6356L13.5084 6.86804C12.8417 6.48407 12.0093 6.96526 12.0093 7.73459V13.2697Z" fill="#E63632"/>
</svg>
